<?xml version="1.0" encoding="UTF-8" standalone="no"?>
<!DOCTYPE svg PUBLIC "-//W3C//DTD SVG 1.1//EN" "http://www.w3.org/Graphics/SVG/1.1/DTD/svg11.dtd">
<!-- Generated by Microsoft Visio, SVG Export ospf-areas.svg Page-1 -->
<svg xmlns="http://www.w3.org/2000/svg" xmlns:xlink="http://www.w3.org/1999/xlink" xmlns:ev="http://www.w3.org/2001/xml-events"
		xmlns:v="http://schemas.microsoft.com/visio/2003/SVGExtensions/" width="6.30963in" height="3.63066in"
		viewBox="0 0 454.293 261.407" xml:space="preserve" color-interpolation-filters="sRGB" class="st25">
	<v:documentProperties v:langID="1026" v:viewMarkup="false"/>

	<style type="text/css">
	<![CDATA[
		.st1 {fill:#fcebdd;stroke:none;stroke-linecap:round;stroke-linejoin:round;stroke-width:0.24}
		.st2 {fill:#b7dde8;stroke:none;stroke-linecap:round;stroke-linejoin:round;stroke-width:0.24}
		.st3 {fill:#fee9a7;stroke:#000000;stroke-linecap:round;stroke-linejoin:round;stroke-width:1}
		.st4 {fill:#d7e3bf;stroke:none;stroke-linecap:round;stroke-linejoin:round;stroke-width:0.24}
		.st5 {fill:#eed0ce;stroke:none;stroke-linecap:round;stroke-linejoin:round;stroke-width:0.24}
		.st6 {fill:#0e6f9c;stroke:none;stroke-linecap:round;stroke-linejoin:round;stroke-width:0.75}
		.st7 {fill:none;stroke:#f2f2f2;stroke-linecap:round;stroke-linejoin:round;stroke-width:0.594974}
		.st8 {fill:#1082b8;stroke:none;stroke-linecap:round;stroke-linejoin:round;stroke-width:0.75}
		.st9 {fill:none;stroke:#ffffff;stroke-linecap:round;stroke-linejoin:round;stroke-width:1}
		.st10 {fill:#ffffff;stroke:none;stroke-linecap:round;stroke-linejoin:round;stroke-width:0.75}
		.st11 {fill:none}
		.st12 {stroke:#f2f2f2;stroke-linecap:round;stroke-linejoin:round;stroke-width:0.594974}
		.st13 {stroke:#a5a5a5;stroke-linecap:round;stroke-linejoin:round;stroke-width:1}
		.st14 {fill:none;stroke:none;stroke-linecap:round;stroke-linejoin:round;stroke-width:0.75}
		.st15 {fill:#000000;font-family:Verdana;font-size:1.00001em;font-weight:bold}
		.st16 {font-size:1em}
		.st17 {fill:#000000;font-family:Verdana;font-size:1.00001em}
		.st18 {fill:#fee599;stroke:#000000;stroke-linecap:round;stroke-linejoin:round;stroke-width:1.25}
		.st19 {fill:#000000;font-family:Verdana;font-size:0.666664em}
		.st20 {marker-end:url(#mrkr1-630);stroke:#000000;stroke-dasharray:3.75,3.75;stroke-linecap:round;stroke-linejoin:round;stroke-width:1.25}
		.st21 {fill:#000000;fill-opacity:1;stroke:#000000;stroke-opacity:1;stroke-width:0.46468401486989}
		.st22 {fill:#000000;font-family:Verdana;font-size:0.833336em;font-weight:bold}
		.st23 {font-size:1em;font-weight:normal}
		.st24 {stroke:#000000;stroke-linecap:round;stroke-linejoin:round;stroke-width:1}
		.st25 {fill:none;fill-rule:evenodd;font-size:12px;overflow:visible;stroke-linecap:square;stroke-miterlimit:3}
	]]>
	</style>

	<defs id="Markers">
		<g id="lend1">
			<path d="M 1 -1 L 0 0 L 1 1 " style="stroke-linecap:round;stroke-linejoin:round;fill:none"/>
		</g>
		<marker id="mrkr1-630" class="st21" v:arrowType="1" v:arrowSize="0" orient="auto" markerUnits="strokeWidth"
				overflow="visible">
			<use xlink:href="#lend1" transform="scale(-2.152,-2.152) "/>
		</marker>
	</defs>
	<g v:mID="0" v:index="1" v:groupContext="foregroundPage">
		<title>Page-1</title>
		<v:pageProperties v:drawingScale="0.0393701" v:pageScale="0.0393701" v:drawingUnits="24" v:shadowOffsetX="9"
				v:shadowOffsetY="-9"/>
		<g id="group316-1" transform="translate(0.375,-0.5)" v:mID="316" v:groupContext="group">
			<title>Sheet.316</title>
			<g id="shape1-2" v:mID="1" v:groupContext="shape" transform="translate(0,-5.66929)">
				<title>Rectangle</title>
				<v:userDefs>
					<v:ud v:nameU="visVersion" v:val="VT0(15):26"/>
				</v:userDefs>
				<rect x="0" y="139.518" width="144.567" height="121.89" rx="5.66929" ry="5.66929" class="st1"/>
			</g>
			<g id="shape2-4" v:mID="2" v:groupContext="shape" transform="translate(154.488,-5.66929)">
				<title>Rectangle.2</title>
				<v:userDefs>
					<v:ud v:nameU="visVersion" v:val="VT0(15):26"/>
				</v:userDefs>
				<rect x="0" y="139.518" width="144.567" height="121.89" rx="5.66929" ry="5.66929" class="st2"/>
			</g>
			<g id="shape303-6" v:mID="303" v:groupContext="shape" transform="translate(149.195,0)">
				<title>Rectangle.303</title>
				<v:userDefs>
					<v:ud v:nameU="visVersion" v:val="VT0(15):26"/>
				</v:userDefs>
				<path d="M0 256.9 A5.66942 4.50529 -180 0 0 5.67 261.41 L70.11 261.41 A5.66942 4.50529 -180 0 0 75.78 256.9 L75.78
							 207.35 A5.66942 4.50529 -180 0 0 70.11 202.84 L5.67 202.84 A5.66942 4.50529 -180 0 0 -0 207.35 L0 256.9
							 Z" class="st3"/>
			</g>
			<g id="shape3-8" v:mID="3" v:groupContext="shape" transform="translate(308.976,-5.66929)">
				<title>Rectangle.3</title>
				<v:userDefs>
					<v:ud v:nameU="visVersion" v:val="VT0(15):26"/>
				</v:userDefs>
				<rect x="0" y="139.518" width="144.567" height="121.89" rx="5.66929" ry="5.66929" class="st4"/>
			</g>
			<g id="shape4-10" v:mID="4" v:groupContext="shape" transform="translate(0,-134.646)">
				<title>Rectangle.4</title>
				<v:userDefs>
					<v:ud v:nameU="visVersion" v:val="VT0(15):26"/>
				</v:userDefs>
				<rect x="0" y="135.266" width="453.543" height="126.142" rx="5.66929" ry="5.66929" class="st5"/>
			</g>
			<g id="group5-12" transform="translate(99.3618,-213.941)" v:mID="5" v:groupContext="group">
				<title>Sheet.5</title>
				<g id="shape6-13" v:mID="6" v:groupContext="shape" transform="translate(0.0796595,5.68434E-014)">
					<title>Sheet.6</title>
					<path d="M52.18 252.46 C52.18 252.46 52.18 252.46 52.18 252.46 C52.18 257.41 40.47 261.41 26.13 261.41 C11.71
								 261.41 0 257.41 0 252.46 C0 247.51 11.71 243.51 26.13 243.51 C40.47 243.51 52.18 247.51 52.18 252.46
								 Z" class="st6"/>
				</g>
				<g id="shape7-15" v:mID="7" v:groupContext="shape" transform="translate(0.0796595,5.68434E-014)">
					<title>Sheet.7</title>
					<path d="M52.18 252.46 C52.18 252.46 52.18 252.46 52.18 252.46 C52.18 257.41 40.47 261.41 26.13 261.41 C11.71
								 261.41 0 257.41 0 252.46 C0 247.51 11.71 243.51 26.13 243.51 C40.47 243.51 52.18 247.51 52.18 252.46
								 Z" class="st7"/>
				</g>
				<g id="shape8-17" v:mID="8" v:groupContext="shape" transform="translate(3.75699E-013,-8.70729)">
					<title>Sheet.8</title>
					<path d="M0 248.63 L0 261.41 L52.26 261.41 L52.26 248.63 L0 248.63 Z" class="st6"/>
				</g>
				<g id="shape9-19" v:mID="9" v:groupContext="shape" transform="translate(0.0796595,-12.7813)">
					<title>Sheet.9</title>
					<path d="M52.18 252.46 C52.18 252.46 52.18 252.46 52.18 252.46 C52.18 257.41 40.47 261.41 26.13 261.41 C11.71
								 261.41 0 257.41 0 252.46 C0 247.51 11.71 243.51 26.13 243.51 C40.47 243.51 52.18 247.51 52.18 252.46
								 Z" class="st8"/>
				</g>
				<g id="shape10-21" v:mID="10" v:groupContext="shape" transform="translate(0.0796595,-12.7813)">
					<title>Sheet.10</title>
					<path d="M52.18 252.46 C52.18 252.46 52.18 252.46 52.18 252.46 C52.18 257.41 40.47 261.41 26.13 261.41 C11.71
								 261.41 0 257.41 0 252.46 C0 247.51 11.71 243.51 26.13 243.51 C40.47 243.51 52.18 247.51 52.18 252.46
								 Z" class="st9"/>
				</g>
				<g id="shape11-23" v:mID="11" v:groupContext="shape" transform="translate(26.8452,-22.4472)">
					<title>Sheet.11</title>
					<path d="M0 260.13 L3.82 261.41 L12.9 257.81 L17.13 258.85 L14.9 255.57 L3.98 255.57 L8.52 256.69 L0 260.13 Z"
							class="st8"/>
				</g>
				<g id="shape12-25" v:mID="12" v:groupContext="shape" transform="translate(8.04561,-15.4974)">
					<title>Sheet.12</title>
					<path d="M17.21 256.85 L13.38 255.57 L4.3 259.25 L0 258.21 L2.31 261.41 L13.22 261.41 L8.6 260.29 L17.21 256.85
								 Z" class="st8"/>
				</g>
				<g id="shape13-27" v:mID="13" v:groupContext="shape" transform="translate(9.00152,-22.607)">
					<title>Sheet.13</title>
					<path d="M0 256.85 L3.82 255.57 L12.9 259.25 L17.21 258.21 L14.98 261.41 L3.98 261.41 L8.6 260.29 L0 256.85 Z"
							class="st8"/>
				</g>
				<g id="shape14-29" v:mID="14" v:groupContext="shape" transform="translate(26.2876,-15.098)">
					<title>Sheet.14</title>
					<path d="M17.13 260.13 L13.3 261.41 L4.22 257.81 L0 258.85 L2.23 255.57 L13.14 255.57 L8.6 256.69 L17.13 260.13
								 Z" class="st8"/>
				</g>
				<g id="shape15-31" v:mID="15" v:groupContext="shape" transform="translate(27.1639,-22.1277)">
					<title>Sheet.15</title>
					<path d="M0 260.13 L3.82 261.41 L12.9 257.81 L17.13 258.85 L14.9 255.57 L3.98 255.57 L8.52 256.69 L0 260.13 Z"
							class="st10"/>
				</g>
				<g id="shape16-33" v:mID="16" v:groupContext="shape" transform="translate(8.36424,-15.1778)">
					<title>Sheet.16</title>
					<path d="M17.21 256.85 L13.38 255.57 L4.3 259.25 L0 258.21 L2.31 261.41 L13.22 261.41 L8.6 260.29 L17.21 256.85
								 Z" class="st10"/>
				</g>
				<g id="shape17-35" v:mID="17" v:groupContext="shape" transform="translate(9.32016,-22.2875)">
					<title>Sheet.17</title>
					<path d="M0 256.85 L3.82 255.57 L12.9 259.25 L17.21 258.21 L14.98 261.41 L3.98 261.41 L8.6 260.29 L0 256.85 Z"
							class="st10"/>
				</g>
				<g id="shape18-37" v:mID="18" v:groupContext="shape" transform="translate(26.6063,-14.7784)">
					<title>Sheet.18</title>
					<path d="M17.13 260.13 L13.3 261.41 L4.22 257.81 L0 258.85 L2.23 255.57 L13.14 255.57 L8.6 256.69 L17.13 260.13
								 Z" class="st10"/>
				</g>
				<g id="shape19-39" v:mID="19" v:groupContext="shape" transform="translate(0.0796594,-8.70729)">
					<title>Sheet.19</title>
					<path d="M0 248.55 L0 261.41 L0 248.55 Z" class="st11"/>
					<path d="M0 248.55 L0 261.41" class="st12"/>
				</g>
				<g id="shape20-42" v:mID="20" v:groupContext="shape" transform="translate(52.2566,-8.70729)">
					<title>Sheet.20</title>
					<path d="M0 248.55 L0 261.41 L0 248.55 Z" class="st11"/>
					<path d="M0 248.55 L0 261.41" class="st12"/>
				</g>
			</g>
			<g id="group21-45" transform="translate(154.243,-170.079)" v:mID="21" v:groupContext="group">
				<title>Sheet.21</title>
				<g id="shape22-46" v:mID="22" v:groupContext="shape" transform="translate(0.0796595,5.68434E-014)">
					<title>Sheet.22</title>
					<path d="M52.18 252.46 C52.18 252.46 52.18 252.46 52.18 252.46 C52.18 257.41 40.47 261.41 26.13 261.41 C11.71
								 261.41 0 257.41 0 252.46 C0 247.51 11.71 243.51 26.13 243.51 C40.47 243.51 52.18 247.51 52.18 252.46
								 Z" class="st6"/>
				</g>
				<g id="shape23-48" v:mID="23" v:groupContext="shape" transform="translate(0.0796595,5.68434E-014)">
					<title>Sheet.23</title>
					<path d="M52.18 252.46 C52.18 252.46 52.18 252.46 52.18 252.46 C52.18 257.41 40.47 261.41 26.13 261.41 C11.71
								 261.41 0 257.41 0 252.46 C0 247.51 11.71 243.51 26.13 243.51 C40.47 243.51 52.18 247.51 52.18 252.46
								 Z" class="st7"/>
				</g>
				<g id="shape24-50" v:mID="24" v:groupContext="shape" transform="translate(3.75699E-013,-8.70729)">
					<title>Sheet.24</title>
					<path d="M0 248.63 L0 261.41 L52.26 261.41 L52.26 248.63 L0 248.63 Z" class="st6"/>
				</g>
				<g id="shape25-52" v:mID="25" v:groupContext="shape" transform="translate(0.0796595,-12.7813)">
					<title>Sheet.25</title>
					<path d="M52.18 252.46 C52.18 252.46 52.18 252.46 52.18 252.46 C52.18 257.41 40.47 261.41 26.13 261.41 C11.71
								 261.41 0 257.41 0 252.46 C0 247.51 11.71 243.51 26.13 243.51 C40.47 243.51 52.18 247.51 52.18 252.46
								 Z" class="st8"/>
				</g>
				<g id="shape26-54" v:mID="26" v:groupContext="shape" transform="translate(0.0796595,-12.7813)">
					<title>Sheet.26</title>
					<path d="M52.18 252.46 C52.18 252.46 52.18 252.46 52.18 252.46 C52.18 257.41 40.47 261.41 26.13 261.41 C11.71
								 261.41 0 257.41 0 252.46 C0 247.51 11.71 243.51 26.13 243.51 C40.47 243.51 52.18 247.51 52.18 252.46
								 Z" class="st9"/>
				</g>
				<g id="shape27-56" v:mID="27" v:groupContext="shape" transform="translate(26.8452,-22.4472)">
					<title>Sheet.27</title>
					<path d="M0 260.13 L3.82 261.41 L12.9 257.81 L17.13 258.85 L14.9 255.57 L3.98 255.57 L8.52 256.69 L0 260.13 Z"
							class="st8"/>
				</g>
				<g id="shape28-58" v:mID="28" v:groupContext="shape" transform="translate(8.04561,-15.4974)">
					<title>Sheet.28</title>
					<path d="M17.21 256.85 L13.38 255.57 L4.3 259.25 L0 258.21 L2.31 261.41 L13.22 261.41 L8.6 260.29 L17.21 256.85
								 Z" class="st8"/>
				</g>
				<g id="shape29-60" v:mID="29" v:groupContext="shape" transform="translate(9.00152,-22.607)">
					<title>Sheet.29</title>
					<path d="M0 256.85 L3.82 255.57 L12.9 259.25 L17.21 258.21 L14.98 261.41 L3.98 261.41 L8.6 260.29 L0 256.85 Z"
							class="st8"/>
				</g>
				<g id="shape30-62" v:mID="30" v:groupContext="shape" transform="translate(26.2876,-15.098)">
					<title>Sheet.30</title>
					<path d="M17.13 260.13 L13.3 261.41 L4.22 257.81 L0 258.85 L2.23 255.57 L13.14 255.57 L8.6 256.69 L17.13 260.13
								 Z" class="st8"/>
				</g>
				<g id="shape31-64" v:mID="31" v:groupContext="shape" transform="translate(27.1639,-22.1277)">
					<title>Sheet.31</title>
					<path d="M0 260.13 L3.82 261.41 L12.9 257.81 L17.13 258.85 L14.9 255.57 L3.98 255.57 L8.52 256.69 L0 260.13 Z"
							class="st10"/>
				</g>
				<g id="shape32-66" v:mID="32" v:groupContext="shape" transform="translate(8.36424,-15.1778)">
					<title>Sheet.32</title>
					<path d="M17.21 256.85 L13.38 255.57 L4.3 259.25 L0 258.21 L2.31 261.41 L13.22 261.41 L8.6 260.29 L17.21 256.85
								 Z" class="st10"/>
				</g>
				<g id="shape33-68" v:mID="33" v:groupContext="shape" transform="translate(9.32016,-22.2875)">
					<title>Sheet.33</title>
					<path d="M0 256.85 L3.82 255.57 L12.9 259.25 L17.21 258.21 L14.98 261.41 L3.98 261.41 L8.6 260.29 L0 256.85 Z"
							class="st10"/>
				</g>
				<g id="shape34-70" v:mID="34" v:groupContext="shape" transform="translate(26.6063,-14.7784)">
					<title>Sheet.34</title>
					<path d="M17.13 260.13 L13.3 261.41 L4.22 257.81 L0 258.85 L2.23 255.57 L13.14 255.57 L8.6 256.69 L17.13 260.13
								 Z" class="st10"/>
				</g>
				<g id="shape35-72" v:mID="35" v:groupContext="shape" transform="translate(0.0796594,-8.70729)">
					<title>Sheet.35</title>
					<path d="M0 248.55 L0 261.41 L0 248.55 Z" class="st11"/>
					<path d="M0 248.55 L0 261.41" class="st12"/>
				</g>
				<g id="shape36-75" v:mID="36" v:groupContext="shape" transform="translate(52.2566,-8.70729)">
					<title>Sheet.36</title>
					<path d="M0 248.55 L0 261.41 L0 248.55 Z" class="st11"/>
					<path d="M0 248.55 L0 261.41" class="st12"/>
				</g>
			</g>
			<g id="group37-78" transform="translate(304.778,-213.941)" v:mID="37" v:groupContext="group">
				<title>Sheet.37</title>
				<g id="shape38-79" v:mID="38" v:groupContext="shape" transform="translate(0.0796595,5.68434E-014)">
					<title>Sheet.38</title>
					<path d="M52.18 252.46 C52.18 252.46 52.18 252.46 52.18 252.46 C52.18 257.41 40.47 261.41 26.13 261.41 C11.71
								 261.41 0 257.41 0 252.46 C0 247.51 11.71 243.51 26.13 243.51 C40.47 243.51 52.18 247.51 52.18 252.46
								 Z" class="st6"/>
				</g>
				<g id="shape39-81" v:mID="39" v:groupContext="shape" transform="translate(0.0796595,5.68434E-014)">
					<title>Sheet.39</title>
					<path d="M52.18 252.46 C52.18 252.46 52.18 252.46 52.18 252.46 C52.18 257.41 40.47 261.41 26.13 261.41 C11.71
								 261.41 0 257.41 0 252.46 C0 247.51 11.71 243.51 26.13 243.51 C40.47 243.51 52.18 247.51 52.18 252.46
								 Z" class="st7"/>
				</g>
				<g id="shape40-83" v:mID="40" v:groupContext="shape" transform="translate(3.75699E-013,-8.70729)">
					<title>Sheet.40</title>
					<path d="M0 248.63 L0 261.41 L52.26 261.41 L52.26 248.63 L0 248.63 Z" class="st6"/>
				</g>
				<g id="shape41-85" v:mID="41" v:groupContext="shape" transform="translate(0.0796595,-12.7813)">
					<title>Sheet.41</title>
					<path d="M52.18 252.46 C52.18 252.46 52.18 252.46 52.18 252.46 C52.18 257.41 40.47 261.41 26.13 261.41 C11.71
								 261.41 0 257.41 0 252.46 C0 247.51 11.71 243.51 26.13 243.51 C40.47 243.51 52.18 247.51 52.18 252.46
								 Z" class="st8"/>
				</g>
				<g id="shape42-87" v:mID="42" v:groupContext="shape" transform="translate(0.0796595,-12.7813)">
					<title>Sheet.42</title>
					<path d="M52.18 252.46 C52.18 252.46 52.18 252.46 52.18 252.46 C52.18 257.41 40.47 261.41 26.13 261.41 C11.71
								 261.41 0 257.41 0 252.46 C0 247.51 11.71 243.51 26.13 243.51 C40.47 243.51 52.18 247.51 52.18 252.46
								 Z" class="st9"/>
				</g>
				<g id="shape43-89" v:mID="43" v:groupContext="shape" transform="translate(26.8452,-22.4472)">
					<title>Sheet.43</title>
					<path d="M0 260.13 L3.82 261.41 L12.9 257.81 L17.13 258.85 L14.9 255.57 L3.98 255.57 L8.52 256.69 L0 260.13 Z"
							class="st8"/>
				</g>
				<g id="shape44-91" v:mID="44" v:groupContext="shape" transform="translate(8.04561,-15.4974)">
					<title>Sheet.44</title>
					<path d="M17.21 256.85 L13.38 255.57 L4.3 259.25 L0 258.21 L2.31 261.41 L13.22 261.41 L8.6 260.29 L17.21 256.85
								 Z" class="st8"/>
				</g>
				<g id="shape45-93" v:mID="45" v:groupContext="shape" transform="translate(9.00152,-22.607)">
					<title>Sheet.45</title>
					<path d="M0 256.85 L3.82 255.57 L12.9 259.25 L17.21 258.21 L14.98 261.41 L3.98 261.41 L8.6 260.29 L0 256.85 Z"
							class="st8"/>
				</g>
				<g id="shape46-95" v:mID="46" v:groupContext="shape" transform="translate(26.2876,-15.098)">
					<title>Sheet.46</title>
					<path d="M17.13 260.13 L13.3 261.41 L4.22 257.81 L0 258.85 L2.23 255.57 L13.14 255.57 L8.6 256.69 L17.13 260.13
								 Z" class="st8"/>
				</g>
				<g id="shape47-97" v:mID="47" v:groupContext="shape" transform="translate(27.1639,-22.1277)">
					<title>Sheet.47</title>
					<path d="M0 260.13 L3.82 261.41 L12.9 257.81 L17.13 258.85 L14.9 255.57 L3.98 255.57 L8.52 256.69 L0 260.13 Z"
							class="st10"/>
				</g>
				<g id="shape48-99" v:mID="48" v:groupContext="shape" transform="translate(8.36424,-15.1778)">
					<title>Sheet.48</title>
					<path d="M17.21 256.85 L13.38 255.57 L4.3 259.25 L0 258.21 L2.31 261.41 L13.22 261.41 L8.6 260.29 L17.21 256.85
								 Z" class="st10"/>
				</g>
				<g id="shape49-101" v:mID="49" v:groupContext="shape" transform="translate(9.32016,-22.2875)">
					<title>Sheet.49</title>
					<path d="M0 256.85 L3.82 255.57 L12.9 259.25 L17.21 258.21 L14.98 261.41 L3.98 261.41 L8.6 260.29 L0 256.85 Z"
							class="st10"/>
				</g>
				<g id="shape50-103" v:mID="50" v:groupContext="shape" transform="translate(26.6063,-14.7784)">
					<title>Sheet.50</title>
					<path d="M17.13 260.13 L13.3 261.41 L4.22 257.81 L0 258.85 L2.23 255.57 L13.14 255.57 L8.6 256.69 L17.13 260.13
								 Z" class="st10"/>
				</g>
				<g id="shape51-105" v:mID="51" v:groupContext="shape" transform="translate(0.0796594,-8.70729)">
					<title>Sheet.51</title>
					<path d="M0 248.55 L0 261.41 L0 248.55 Z" class="st11"/>
					<path d="M0 248.55 L0 261.41" class="st12"/>
				</g>
				<g id="shape52-108" v:mID="52" v:groupContext="shape" transform="translate(52.2566,-8.70729)">
					<title>Sheet.52</title>
					<path d="M0 248.55 L0 261.41 L0 248.55 Z" class="st11"/>
					<path d="M0 248.55 L0 261.41" class="st12"/>
				</g>
			</g>
			<g id="group53-111" transform="translate(237.044,-170.079)" v:mID="53" v:groupContext="group">
				<title>Sheet.53</title>
				<g id="shape54-112" v:mID="54" v:groupContext="shape" transform="translate(0.0796595,5.68434E-014)">
					<title>Sheet.54</title>
					<path d="M52.18 252.46 C52.18 252.46 52.18 252.46 52.18 252.46 C52.18 257.41 40.47 261.41 26.13 261.41 C11.71
								 261.41 0 257.41 0 252.46 C0 247.51 11.71 243.51 26.13 243.51 C40.47 243.51 52.18 247.51 52.18 252.46
								 Z" class="st6"/>
				</g>
				<g id="shape55-114" v:mID="55" v:groupContext="shape" transform="translate(0.0796595,5.68434E-014)">
					<title>Sheet.55</title>
					<path d="M52.18 252.46 C52.18 252.46 52.18 252.46 52.18 252.46 C52.18 257.41 40.47 261.41 26.13 261.41 C11.71
								 261.41 0 257.41 0 252.46 C0 247.51 11.71 243.51 26.13 243.51 C40.47 243.51 52.18 247.51 52.18 252.46
								 Z" class="st7"/>
				</g>
				<g id="shape56-116" v:mID="56" v:groupContext="shape" transform="translate(3.75699E-013,-8.70729)">
					<title>Sheet.56</title>
					<path d="M0 248.63 L0 261.41 L52.26 261.41 L52.26 248.63 L0 248.63 Z" class="st6"/>
				</g>
				<g id="shape57-118" v:mID="57" v:groupContext="shape" transform="translate(0.0796595,-12.7813)">
					<title>Sheet.57</title>
					<path d="M52.18 252.46 C52.18 252.46 52.18 252.46 52.18 252.46 C52.18 257.41 40.47 261.41 26.13 261.41 C11.71
								 261.41 0 257.41 0 252.46 C0 247.51 11.71 243.51 26.13 243.51 C40.47 243.51 52.18 247.51 52.18 252.46
								 Z" class="st8"/>
				</g>
				<g id="shape58-120" v:mID="58" v:groupContext="shape" transform="translate(0.0796595,-12.7813)">
					<title>Sheet.58</title>
					<path d="M52.18 252.46 C52.18 252.46 52.18 252.46 52.18 252.46 C52.18 257.41 40.47 261.41 26.13 261.41 C11.71
								 261.41 0 257.41 0 252.46 C0 247.51 11.71 243.51 26.13 243.51 C40.47 243.51 52.18 247.51 52.18 252.46
								 Z" class="st9"/>
				</g>
				<g id="shape59-122" v:mID="59" v:groupContext="shape" transform="translate(26.8452,-22.4472)">
					<title>Sheet.59</title>
					<path d="M0 260.13 L3.82 261.41 L12.9 257.81 L17.13 258.85 L14.9 255.57 L3.98 255.57 L8.52 256.69 L0 260.13 Z"
							class="st8"/>
				</g>
				<g id="shape60-124" v:mID="60" v:groupContext="shape" transform="translate(8.04561,-15.4974)">
					<title>Sheet.60</title>
					<path d="M17.21 256.85 L13.38 255.57 L4.3 259.25 L0 258.21 L2.31 261.41 L13.22 261.41 L8.6 260.29 L17.21 256.85
								 Z" class="st8"/>
				</g>
				<g id="shape61-126" v:mID="61" v:groupContext="shape" transform="translate(9.00152,-22.607)">
					<title>Sheet.61</title>
					<path d="M0 256.85 L3.82 255.57 L12.9 259.25 L17.21 258.21 L14.98 261.41 L3.98 261.41 L8.6 260.29 L0 256.85 Z"
							class="st8"/>
				</g>
				<g id="shape62-128" v:mID="62" v:groupContext="shape" transform="translate(26.2876,-15.098)">
					<title>Sheet.62</title>
					<path d="M17.13 260.13 L13.3 261.41 L4.22 257.81 L0 258.85 L2.23 255.57 L13.14 255.57 L8.6 256.69 L17.13 260.13
								 Z" class="st8"/>
				</g>
				<g id="shape63-130" v:mID="63" v:groupContext="shape" transform="translate(27.1639,-22.1277)">
					<title>Sheet.63</title>
					<path d="M0 260.13 L3.82 261.41 L12.9 257.81 L17.13 258.85 L14.9 255.57 L3.98 255.57 L8.52 256.69 L0 260.13 Z"
							class="st10"/>
				</g>
				<g id="shape64-132" v:mID="64" v:groupContext="shape" transform="translate(8.36424,-15.1778)">
					<title>Sheet.64</title>
					<path d="M17.21 256.85 L13.38 255.57 L4.3 259.25 L0 258.21 L2.31 261.41 L13.22 261.41 L8.6 260.29 L17.21 256.85
								 Z" class="st10"/>
				</g>
				<g id="shape65-134" v:mID="65" v:groupContext="shape" transform="translate(9.32016,-22.2875)">
					<title>Sheet.65</title>
					<path d="M0 256.85 L3.82 255.57 L12.9 259.25 L17.21 258.21 L14.98 261.41 L3.98 261.41 L8.6 260.29 L0 256.85 Z"
							class="st10"/>
				</g>
				<g id="shape66-136" v:mID="66" v:groupContext="shape" transform="translate(26.6063,-14.7784)">
					<title>Sheet.66</title>
					<path d="M17.13 260.13 L13.3 261.41 L4.22 257.81 L0 258.85 L2.23 255.57 L13.14 255.57 L8.6 256.69 L17.13 260.13
								 Z" class="st10"/>
				</g>
				<g id="shape67-138" v:mID="67" v:groupContext="shape" transform="translate(0.0796594,-8.70729)">
					<title>Sheet.67</title>
					<path d="M0 248.55 L0 261.41 L0 248.55 Z" class="st11"/>
					<path d="M0 248.55 L0 261.41" class="st12"/>
				</g>
				<g id="shape68-141" v:mID="68" v:groupContext="shape" transform="translate(52.2566,-8.70729)">
					<title>Sheet.68</title>
					<path d="M0 248.55 L0 261.41 L0 248.55 Z" class="st11"/>
					<path d="M0 248.55 L0 261.41" class="st12"/>
				</g>
			</g>
			<g id="group69-144" transform="translate(17.0079,-116.72)" v:mID="69" v:groupContext="group">
				<title>Sheet.69</title>
				<g id="shape70-145" v:mID="70" v:groupContext="shape" transform="translate(0.0649401,0)">
					<title>Sheet.70</title>
					<path d="M42.54 254.11 C42.54 254.11 42.54 254.11 42.54 254.11 C42.54 258.15 32.99 261.41 21.3 261.41 C9.55 261.41
								 0 258.15 0 254.11 C0 250.08 9.55 246.81 21.3 246.81 C32.99 246.81 42.54 250.08 42.54 254.11 Z"
							class="st6"/>
				</g>
				<g id="shape71-147" v:mID="71" v:groupContext="shape" transform="translate(0.0649401,0)">
					<title>Sheet.71</title>
					<path d="M42.54 254.11 C42.54 254.11 42.54 254.11 42.54 254.11 C42.54 258.15 32.99 261.41 21.3 261.41 C9.55 261.41
								 0 258.15 0 254.11 C0 250.08 9.55 246.81 21.3 246.81 C32.99 246.81 42.54 250.08 42.54 254.11 Z"
							class="st7"/>
				</g>
				<g id="shape72-149" v:mID="72" v:groupContext="shape" transform="translate(0,-7.09836)">
					<title>Sheet.72</title>
					<path d="M0 250.99 L0 261.41 L42.6 261.41 L42.6 250.99 L0 250.99 Z" class="st6"/>
				</g>
				<g id="shape73-151" v:mID="73" v:groupContext="shape" transform="translate(0.0649401,-10.4196)">
					<title>Sheet.73</title>
					<path d="M42.54 254.11 C42.54 254.11 42.54 254.11 42.54 254.11 C42.54 258.15 32.99 261.41 21.3 261.41 C9.55 261.41
								 0 258.15 0 254.11 C0 250.08 9.55 246.81 21.3 246.81 C32.99 246.81 42.54 250.08 42.54 254.11 Z"
							class="st8"/>
				</g>
				<g id="shape74-153" v:mID="74" v:groupContext="shape" transform="translate(0.0649401,-10.4196)">
					<title>Sheet.74</title>
					<path d="M42.54 254.11 C42.54 254.11 42.54 254.11 42.54 254.11 C42.54 258.15 32.99 261.41 21.3 261.41 C9.55 261.41
								 0 258.15 0 254.11 C0 250.08 9.55 246.81 21.3 246.81 C32.99 246.81 42.54 250.08 42.54 254.11 Z"
							class="st9"/>
				</g>
				<g id="shape75-155" v:mID="75" v:groupContext="shape" transform="translate(21.8848,-18.2994)">
					<title>Sheet.75</title>
					<path d="M0 260.36 L3.11 261.41 L10.52 258.47 L13.96 259.32 L12.15 256.65 L3.24 256.65 L6.95 257.56 L0 260.36
								 Z" class="st8"/>
				</g>
				<g id="shape76-157" v:mID="76" v:groupContext="shape" transform="translate(6.55895,-12.6338)">
					<title>Sheet.76</title>
					<path d="M14.03 257.69 L10.91 256.65 L3.51 259.65 L0 258.8 L1.88 261.41 L10.78 261.41 L7.01 260.49 L14.03 257.69
								 Z" class="st8"/>
				</g>
				<g id="shape77-159" v:mID="77" v:groupContext="shape" transform="translate(7.33822,-18.4297)">
					<title>Sheet.77</title>
					<path d="M0 257.69 L3.11 256.65 L10.52 259.65 L14.03 258.8 L12.21 261.41 L3.24 261.41 L7.01 260.49 L0 257.69 Z"
							class="st8"/>
				</g>
				<g id="shape78-161" v:mID="78" v:groupContext="shape" transform="translate(21.4302,-12.3082)">
					<title>Sheet.78</title>
					<path d="M13.96 260.36 L10.84 261.41 L3.44 258.47 L0 259.32 L1.82 256.65 L10.71 256.65 L7.01 257.56 L13.96 260.36
								 Z" class="st8"/>
				</g>
				<g id="shape79-163" v:mID="79" v:groupContext="shape" transform="translate(22.1446,-18.039)">
					<title>Sheet.79</title>
					<path d="M0 260.36 L3.11 261.41 L10.52 258.47 L13.96 259.32 L12.15 256.65 L3.24 256.65 L6.95 257.56 L0 260.36
								 Z" class="st10"/>
				</g>
				<g id="shape80-165" v:mID="80" v:groupContext="shape" transform="translate(6.8187,-12.3733)">
					<title>Sheet.80</title>
					<path d="M14.03 257.69 L10.91 256.65 L3.51 259.65 L0 258.8 L1.88 261.41 L10.78 261.41 L7.01 260.49 L14.03 257.69
								 Z" class="st10"/>
				</g>
				<g id="shape81-167" v:mID="81" v:groupContext="shape" transform="translate(7.59799,-18.1692)">
					<title>Sheet.81</title>
					<path d="M0 257.69 L3.11 256.65 L10.52 259.65 L14.03 258.8 L12.21 261.41 L3.24 261.41 L7.01 260.49 L0 257.69 Z"
							class="st10"/>
				</g>
				<g id="shape82-169" v:mID="82" v:groupContext="shape" transform="translate(21.69,-12.0477)">
					<title>Sheet.82</title>
					<path d="M13.96 260.36 L10.84 261.41 L3.44 258.47 L0 259.32 L1.82 256.65 L10.71 256.65 L7.01 257.56 L13.96 260.36
								 Z" class="st10"/>
				</g>
				<g id="shape83-171" v:mID="83" v:groupContext="shape" transform="translate(0.06494,-7.09836)">
					<title>Sheet.83</title>
					<path d="M0 250.92 L0 261.41 L0 250.92 Z" class="st11"/>
					<path d="M0 250.92 L0 261.41" class="st12"/>
				</g>
				<g id="shape84-174" v:mID="84" v:groupContext="shape" transform="translate(42.6007,-7.09836)">
					<title>Sheet.84</title>
					<path d="M0 250.92 L0 261.41 L0 250.92 Z" class="st11"/>
					<path d="M0 250.92 L0 261.41" class="st12"/>
				</g>
			</g>
			<g id="group85-177" transform="translate(80.7037,-116.72)" v:mID="85" v:groupContext="group">
				<title>Sheet.85</title>
				<g id="shape86-178" v:mID="86" v:groupContext="shape" transform="translate(0.0649401,0)">
					<title>Sheet.86</title>
					<path d="M42.54 254.11 C42.54 254.11 42.54 254.11 42.54 254.11 C42.54 258.15 32.99 261.41 21.3 261.41 C9.55 261.41
								 0 258.15 0 254.11 C0 250.08 9.55 246.81 21.3 246.81 C32.99 246.81 42.54 250.08 42.54 254.11 Z"
							class="st6"/>
				</g>
				<g id="shape87-180" v:mID="87" v:groupContext="shape" transform="translate(0.0649401,0)">
					<title>Sheet.87</title>
					<path d="M42.54 254.11 C42.54 254.11 42.54 254.11 42.54 254.11 C42.54 258.15 32.99 261.41 21.3 261.41 C9.55 261.41
								 0 258.15 0 254.11 C0 250.08 9.55 246.81 21.3 246.81 C32.99 246.81 42.54 250.08 42.54 254.11 Z"
							class="st7"/>
				</g>
				<g id="shape88-182" v:mID="88" v:groupContext="shape" transform="translate(0,-7.09836)">
					<title>Sheet.88</title>
					<path d="M0 250.99 L0 261.41 L42.6 261.41 L42.6 250.99 L0 250.99 Z" class="st6"/>
				</g>
				<g id="shape89-184" v:mID="89" v:groupContext="shape" transform="translate(0.0649401,-10.4196)">
					<title>Sheet.89</title>
					<path d="M42.54 254.11 C42.54 254.11 42.54 254.11 42.54 254.11 C42.54 258.15 32.99 261.41 21.3 261.41 C9.55 261.41
								 0 258.15 0 254.11 C0 250.08 9.55 246.81 21.3 246.81 C32.99 246.81 42.54 250.08 42.54 254.11 Z"
							class="st8"/>
				</g>
				<g id="shape90-186" v:mID="90" v:groupContext="shape" transform="translate(0.0649401,-10.4196)">
					<title>Sheet.90</title>
					<path d="M42.54 254.11 C42.54 254.11 42.54 254.11 42.54 254.11 C42.54 258.15 32.99 261.41 21.3 261.41 C9.55 261.41
								 0 258.15 0 254.11 C0 250.08 9.55 246.81 21.3 246.81 C32.99 246.81 42.54 250.08 42.54 254.11 Z"
							class="st9"/>
				</g>
				<g id="shape91-188" v:mID="91" v:groupContext="shape" transform="translate(21.8848,-18.2994)">
					<title>Sheet.91</title>
					<path d="M0 260.36 L3.11 261.41 L10.52 258.47 L13.96 259.32 L12.15 256.65 L3.24 256.65 L6.95 257.56 L0 260.36
								 Z" class="st8"/>
				</g>
				<g id="shape92-190" v:mID="92" v:groupContext="shape" transform="translate(6.55895,-12.6338)">
					<title>Sheet.92</title>
					<path d="M14.03 257.69 L10.91 256.65 L3.51 259.65 L0 258.8 L1.88 261.41 L10.78 261.41 L7.01 260.49 L14.03 257.69
								 Z" class="st8"/>
				</g>
				<g id="shape93-192" v:mID="93" v:groupContext="shape" transform="translate(7.33822,-18.4297)">
					<title>Sheet.93</title>
					<path d="M0 257.69 L3.11 256.65 L10.52 259.65 L14.03 258.8 L12.21 261.41 L3.24 261.41 L7.01 260.49 L0 257.69 Z"
							class="st8"/>
				</g>
				<g id="shape94-194" v:mID="94" v:groupContext="shape" transform="translate(21.4302,-12.3082)">
					<title>Sheet.94</title>
					<path d="M13.96 260.36 L10.84 261.41 L3.44 258.47 L0 259.32 L1.82 256.65 L10.71 256.65 L7.01 257.56 L13.96 260.36
								 Z" class="st8"/>
				</g>
				<g id="shape95-196" v:mID="95" v:groupContext="shape" transform="translate(22.1446,-18.039)">
					<title>Sheet.95</title>
					<path d="M0 260.36 L3.11 261.41 L10.52 258.47 L13.96 259.32 L12.15 256.65 L3.24 256.65 L6.95 257.56 L0 260.36
								 Z" class="st10"/>
				</g>
				<g id="shape96-198" v:mID="96" v:groupContext="shape" transform="translate(6.8187,-12.3733)">
					<title>Sheet.96</title>
					<path d="M14.03 257.69 L10.91 256.65 L3.51 259.65 L0 258.8 L1.88 261.41 L10.78 261.41 L7.01 260.49 L14.03 257.69
								 Z" class="st10"/>
				</g>
				<g id="shape97-200" v:mID="97" v:groupContext="shape" transform="translate(7.59799,-18.1692)">
					<title>Sheet.97</title>
					<path d="M0 257.69 L3.11 256.65 L10.52 259.65 L14.03 258.8 L12.21 261.41 L3.24 261.41 L7.01 260.49 L0 257.69 Z"
							class="st10"/>
				</g>
				<g id="shape98-202" v:mID="98" v:groupContext="shape" transform="translate(21.69,-12.0477)">
					<title>Sheet.98</title>
					<path d="M13.96 260.36 L10.84 261.41 L3.44 258.47 L0 259.32 L1.82 256.65 L10.71 256.65 L7.01 257.56 L13.96 260.36
								 Z" class="st10"/>
				</g>
				<g id="shape99-204" v:mID="99" v:groupContext="shape" transform="translate(0.06494,-7.09836)">
					<title>Sheet.99</title>
					<path d="M0 250.92 L0 261.41 L0 250.92 Z" class="st11"/>
					<path d="M0 250.92 L0 261.41" class="st12"/>
				</g>
				<g id="shape100-207" v:mID="100" v:groupContext="shape" transform="translate(42.6007,-7.09836)">
					<title>Sheet.100</title>
					<path d="M0 250.92 L0 261.41 L0 250.92 Z" class="st11"/>
					<path d="M0 250.92 L0 261.41" class="st12"/>
				</g>
			</g>
			<g id="group101-210" transform="translate(17.0079,-49.6063)" v:mID="101" v:groupContext="group">
				<title>Sheet.101</title>
				<g id="shape102-211" v:mID="102" v:groupContext="shape" transform="translate(0.0649401,0)">
					<title>Sheet.102</title>
					<path d="M42.54 254.11 C42.54 254.11 42.54 254.11 42.54 254.11 C42.54 258.15 32.99 261.41 21.3 261.41 C9.55 261.41
								 0 258.15 0 254.11 C0 250.08 9.55 246.81 21.3 246.81 C32.99 246.81 42.54 250.08 42.54 254.11 Z"
							class="st6"/>
				</g>
				<g id="shape103-213" v:mID="103" v:groupContext="shape" transform="translate(0.0649401,0)">
					<title>Sheet.103</title>
					<path d="M42.54 254.11 C42.54 254.11 42.54 254.11 42.54 254.11 C42.54 258.15 32.99 261.41 21.3 261.41 C9.55 261.41
								 0 258.15 0 254.11 C0 250.08 9.55 246.81 21.3 246.81 C32.99 246.81 42.54 250.08 42.54 254.11 Z"
							class="st7"/>
				</g>
				<g id="shape104-215" v:mID="104" v:groupContext="shape" transform="translate(0,-7.09836)">
					<title>Sheet.104</title>
					<path d="M0 250.99 L0 261.41 L42.6 261.41 L42.6 250.99 L0 250.99 Z" class="st6"/>
				</g>
				<g id="shape105-217" v:mID="105" v:groupContext="shape" transform="translate(0.0649401,-10.4196)">
					<title>Sheet.105</title>
					<path d="M42.54 254.11 C42.54 254.11 42.54 254.11 42.54 254.11 C42.54 258.15 32.99 261.41 21.3 261.41 C9.55 261.41
								 0 258.15 0 254.11 C0 250.08 9.55 246.81 21.3 246.81 C32.99 246.81 42.54 250.08 42.54 254.11 Z"
							class="st8"/>
				</g>
				<g id="shape106-219" v:mID="106" v:groupContext="shape" transform="translate(0.0649401,-10.4196)">
					<title>Sheet.106</title>
					<path d="M42.54 254.11 C42.54 254.11 42.54 254.11 42.54 254.11 C42.54 258.15 32.99 261.41 21.3 261.41 C9.55 261.41
								 0 258.15 0 254.11 C0 250.08 9.55 246.81 21.3 246.81 C32.99 246.81 42.54 250.08 42.54 254.11 Z"
							class="st9"/>
				</g>
				<g id="shape107-221" v:mID="107" v:groupContext="shape" transform="translate(21.8848,-18.2994)">
					<title>Sheet.107</title>
					<path d="M0 260.36 L3.11 261.41 L10.52 258.47 L13.96 259.32 L12.15 256.65 L3.24 256.65 L6.95 257.56 L0 260.36
								 Z" class="st8"/>
				</g>
				<g id="shape108-223" v:mID="108" v:groupContext="shape" transform="translate(6.55895,-12.6338)">
					<title>Sheet.108</title>
					<path d="M14.03 257.69 L10.91 256.65 L3.51 259.65 L0 258.8 L1.88 261.41 L10.78 261.41 L7.01 260.49 L14.03 257.69
								 Z" class="st8"/>
				</g>
				<g id="shape109-225" v:mID="109" v:groupContext="shape" transform="translate(7.33822,-18.4297)">
					<title>Sheet.109</title>
					<path d="M0 257.69 L3.11 256.65 L10.52 259.65 L14.03 258.8 L12.21 261.41 L3.24 261.41 L7.01 260.49 L0 257.69 Z"
							class="st8"/>
				</g>
				<g id="shape110-227" v:mID="110" v:groupContext="shape" transform="translate(21.4302,-12.3082)">
					<title>Sheet.110</title>
					<path d="M13.96 260.36 L10.84 261.41 L3.44 258.47 L0 259.32 L1.82 256.65 L10.71 256.65 L7.01 257.56 L13.96 260.36
								 Z" class="st8"/>
				</g>
				<g id="shape111-229" v:mID="111" v:groupContext="shape" transform="translate(22.1446,-18.039)">
					<title>Sheet.111</title>
					<path d="M0 260.36 L3.11 261.41 L10.52 258.47 L13.96 259.32 L12.15 256.65 L3.24 256.65 L6.95 257.56 L0 260.36
								 Z" class="st10"/>
				</g>
				<g id="shape112-231" v:mID="112" v:groupContext="shape" transform="translate(6.8187,-12.3733)">
					<title>Sheet.112</title>
					<path d="M14.03 257.69 L10.91 256.65 L3.51 259.65 L0 258.8 L1.88 261.41 L10.78 261.41 L7.01 260.49 L14.03 257.69
								 Z" class="st10"/>
				</g>
				<g id="shape113-233" v:mID="113" v:groupContext="shape" transform="translate(7.59799,-18.1692)">
					<title>Sheet.113</title>
					<path d="M0 257.69 L3.11 256.65 L10.52 259.65 L14.03 258.8 L12.21 261.41 L3.24 261.41 L7.01 260.49 L0 257.69 Z"
							class="st10"/>
				</g>
				<g id="shape114-235" v:mID="114" v:groupContext="shape" transform="translate(21.69,-12.0477)">
					<title>Sheet.114</title>
					<path d="M13.96 260.36 L10.84 261.41 L3.44 258.47 L0 259.32 L1.82 256.65 L10.71 256.65 L7.01 257.56 L13.96 260.36
								 Z" class="st10"/>
				</g>
				<g id="shape115-237" v:mID="115" v:groupContext="shape" transform="translate(0.06494,-7.09836)">
					<title>Sheet.115</title>
					<path d="M0 250.92 L0 261.41 L0 250.92 Z" class="st11"/>
					<path d="M0 250.92 L0 261.41" class="st12"/>
				</g>
				<g id="shape116-240" v:mID="116" v:groupContext="shape" transform="translate(42.6007,-7.09836)">
					<title>Sheet.116</title>
					<path d="M0 250.92 L0 261.41 L0 250.92 Z" class="st11"/>
					<path d="M0 250.92 L0 261.41" class="st12"/>
				</g>
			</g>
			<g id="group117-243" transform="translate(80.7037,-49.6063)" v:mID="117" v:groupContext="group">
				<title>Sheet.117</title>
				<g id="shape118-244" v:mID="118" v:groupContext="shape" transform="translate(0.0649401,0)">
					<title>Sheet.118</title>
					<path d="M42.54 254.11 C42.54 254.11 42.54 254.11 42.54 254.11 C42.54 258.15 32.99 261.41 21.3 261.41 C9.55 261.41
								 0 258.15 0 254.11 C0 250.08 9.55 246.81 21.3 246.81 C32.99 246.81 42.54 250.08 42.54 254.11 Z"
							class="st6"/>
				</g>
				<g id="shape119-246" v:mID="119" v:groupContext="shape" transform="translate(0.0649401,0)">
					<title>Sheet.119</title>
					<path d="M42.54 254.11 C42.54 254.11 42.54 254.11 42.54 254.11 C42.54 258.15 32.99 261.41 21.3 261.41 C9.55 261.41
								 0 258.15 0 254.11 C0 250.08 9.55 246.81 21.3 246.81 C32.99 246.81 42.54 250.08 42.54 254.11 Z"
							class="st7"/>
				</g>
				<g id="shape120-248" v:mID="120" v:groupContext="shape" transform="translate(0,-7.09836)">
					<title>Sheet.120</title>
					<path d="M0 250.99 L0 261.41 L42.6 261.41 L42.6 250.99 L0 250.99 Z" class="st6"/>
				</g>
				<g id="shape121-250" v:mID="121" v:groupContext="shape" transform="translate(0.0649401,-10.4196)">
					<title>Sheet.121</title>
					<path d="M42.54 254.11 C42.54 254.11 42.54 254.11 42.54 254.11 C42.54 258.15 32.99 261.41 21.3 261.41 C9.55 261.41
								 0 258.15 0 254.11 C0 250.08 9.55 246.81 21.3 246.81 C32.99 246.81 42.54 250.08 42.54 254.11 Z"
							class="st8"/>
				</g>
				<g id="shape122-252" v:mID="122" v:groupContext="shape" transform="translate(0.0649401,-10.4196)">
					<title>Sheet.122</title>
					<path d="M42.54 254.11 C42.54 254.11 42.54 254.11 42.54 254.11 C42.54 258.15 32.99 261.41 21.3 261.41 C9.55 261.41
								 0 258.15 0 254.11 C0 250.08 9.55 246.81 21.3 246.81 C32.99 246.81 42.54 250.08 42.54 254.11 Z"
							class="st9"/>
				</g>
				<g id="shape123-254" v:mID="123" v:groupContext="shape" transform="translate(21.8848,-18.2994)">
					<title>Sheet.123</title>
					<path d="M0 260.36 L3.11 261.41 L10.52 258.47 L13.96 259.32 L12.15 256.65 L3.24 256.65 L6.95 257.56 L0 260.36
								 Z" class="st8"/>
				</g>
				<g id="shape124-256" v:mID="124" v:groupContext="shape" transform="translate(6.55895,-12.6338)">
					<title>Sheet.124</title>
					<path d="M14.03 257.69 L10.91 256.65 L3.51 259.65 L0 258.8 L1.88 261.41 L10.78 261.41 L7.01 260.49 L14.03 257.69
								 Z" class="st8"/>
				</g>
				<g id="shape125-258" v:mID="125" v:groupContext="shape" transform="translate(7.33822,-18.4297)">
					<title>Sheet.125</title>
					<path d="M0 257.69 L3.11 256.65 L10.52 259.65 L14.03 258.8 L12.21 261.41 L3.24 261.41 L7.01 260.49 L0 257.69 Z"
							class="st8"/>
				</g>
				<g id="shape126-260" v:mID="126" v:groupContext="shape" transform="translate(21.4302,-12.3082)">
					<title>Sheet.126</title>
					<path d="M13.96 260.36 L10.84 261.41 L3.44 258.47 L0 259.32 L1.82 256.65 L10.71 256.65 L7.01 257.56 L13.96 260.36
								 Z" class="st8"/>
				</g>
				<g id="shape127-262" v:mID="127" v:groupContext="shape" transform="translate(22.1446,-18.039)">
					<title>Sheet.127</title>
					<path d="M0 260.36 L3.11 261.41 L10.52 258.47 L13.96 259.32 L12.15 256.65 L3.24 256.65 L6.95 257.56 L0 260.36
								 Z" class="st10"/>
				</g>
				<g id="shape128-264" v:mID="128" v:groupContext="shape" transform="translate(6.8187,-12.3733)">
					<title>Sheet.128</title>
					<path d="M14.03 257.69 L10.91 256.65 L3.51 259.65 L0 258.8 L1.88 261.41 L10.78 261.41 L7.01 260.49 L14.03 257.69
								 Z" class="st10"/>
				</g>
				<g id="shape129-266" v:mID="129" v:groupContext="shape" transform="translate(7.59799,-18.1692)">
					<title>Sheet.129</title>
					<path d="M0 257.69 L3.11 256.65 L10.52 259.65 L14.03 258.8 L12.21 261.41 L3.24 261.41 L7.01 260.49 L0 257.69 Z"
							class="st10"/>
				</g>
				<g id="shape130-268" v:mID="130" v:groupContext="shape" transform="translate(21.69,-12.0477)">
					<title>Sheet.130</title>
					<path d="M13.96 260.36 L10.84 261.41 L3.44 258.47 L0 259.32 L1.82 256.65 L10.71 256.65 L7.01 257.56 L13.96 260.36
								 Z" class="st10"/>
				</g>
				<g id="shape131-270" v:mID="131" v:groupContext="shape" transform="translate(0.06494,-7.09836)">
					<title>Sheet.131</title>
					<path d="M0 250.92 L0 261.41 L0 250.92 Z" class="st11"/>
					<path d="M0 250.92 L0 261.41" class="st12"/>
				</g>
				<g id="shape132-273" v:mID="132" v:groupContext="shape" transform="translate(42.6007,-7.09836)">
					<title>Sheet.132</title>
					<path d="M0 250.92 L0 261.41 L0 250.92 Z" class="st11"/>
					<path d="M0 250.92 L0 261.41" class="st12"/>
				</g>
			</g>
			<g id="group133-276" transform="translate(165.785,-116.72)" v:mID="133" v:groupContext="group">
				<title>Sheet.133</title>
				<g id="shape134-277" v:mID="134" v:groupContext="shape" transform="translate(0.0649401,0)">
					<title>Sheet.134</title>
					<path d="M42.54 254.11 C42.54 254.11 42.54 254.11 42.54 254.11 C42.54 258.15 32.99 261.41 21.3 261.41 C9.55 261.41
								 0 258.15 0 254.11 C0 250.08 9.55 246.81 21.3 246.81 C32.99 246.81 42.54 250.08 42.54 254.11 Z"
							class="st6"/>
				</g>
				<g id="shape135-279" v:mID="135" v:groupContext="shape" transform="translate(0.0649401,0)">
					<title>Sheet.135</title>
					<path d="M42.54 254.11 C42.54 254.11 42.54 254.11 42.54 254.11 C42.54 258.15 32.99 261.41 21.3 261.41 C9.55 261.41
								 0 258.15 0 254.11 C0 250.08 9.55 246.81 21.3 246.81 C32.99 246.81 42.54 250.08 42.54 254.11 Z"
							class="st7"/>
				</g>
				<g id="shape136-281" v:mID="136" v:groupContext="shape" transform="translate(0,-7.09836)">
					<title>Sheet.136</title>
					<path d="M0 250.99 L0 261.41 L42.6 261.41 L42.6 250.99 L0 250.99 Z" class="st6"/>
				</g>
				<g id="shape137-283" v:mID="137" v:groupContext="shape" transform="translate(0.0649401,-10.4196)">
					<title>Sheet.137</title>
					<path d="M42.54 254.11 C42.54 254.11 42.54 254.11 42.54 254.11 C42.54 258.15 32.99 261.41 21.3 261.41 C9.55 261.41
								 0 258.15 0 254.11 C0 250.08 9.55 246.81 21.3 246.81 C32.99 246.81 42.54 250.08 42.54 254.11 Z"
							class="st8"/>
				</g>
				<g id="shape138-285" v:mID="138" v:groupContext="shape" transform="translate(0.0649401,-10.4196)">
					<title>Sheet.138</title>
					<path d="M42.54 254.11 C42.54 254.11 42.54 254.11 42.54 254.11 C42.54 258.15 32.99 261.41 21.3 261.41 C9.55 261.41
								 0 258.15 0 254.11 C0 250.08 9.55 246.81 21.3 246.81 C32.99 246.81 42.54 250.08 42.54 254.11 Z"
							class="st9"/>
				</g>
				<g id="shape139-287" v:mID="139" v:groupContext="shape" transform="translate(21.8848,-18.2994)">
					<title>Sheet.139</title>
					<path d="M0 260.36 L3.11 261.41 L10.52 258.47 L13.96 259.32 L12.15 256.65 L3.24 256.65 L6.95 257.56 L0 260.36
								 Z" class="st8"/>
				</g>
				<g id="shape140-289" v:mID="140" v:groupContext="shape" transform="translate(6.55895,-12.6338)">
					<title>Sheet.140</title>
					<path d="M14.03 257.69 L10.91 256.65 L3.51 259.65 L0 258.8 L1.88 261.41 L10.78 261.41 L7.01 260.49 L14.03 257.69
								 Z" class="st8"/>
				</g>
				<g id="shape141-291" v:mID="141" v:groupContext="shape" transform="translate(7.33822,-18.4297)">
					<title>Sheet.141</title>
					<path d="M0 257.69 L3.11 256.65 L10.52 259.65 L14.03 258.8 L12.21 261.41 L3.24 261.41 L7.01 260.49 L0 257.69 Z"
							class="st8"/>
				</g>
				<g id="shape142-293" v:mID="142" v:groupContext="shape" transform="translate(21.4302,-12.3082)">
					<title>Sheet.142</title>
					<path d="M13.96 260.36 L10.84 261.41 L3.44 258.47 L0 259.32 L1.82 256.65 L10.71 256.65 L7.01 257.56 L13.96 260.36
								 Z" class="st8"/>
				</g>
				<g id="shape143-295" v:mID="143" v:groupContext="shape" transform="translate(22.1446,-18.039)">
					<title>Sheet.143</title>
					<path d="M0 260.36 L3.11 261.41 L10.52 258.47 L13.96 259.32 L12.15 256.65 L3.24 256.65 L6.95 257.56 L0 260.36
								 Z" class="st10"/>
				</g>
				<g id="shape144-297" v:mID="144" v:groupContext="shape" transform="translate(6.8187,-12.3733)">
					<title>Sheet.144</title>
					<path d="M14.03 257.69 L10.91 256.65 L3.51 259.65 L0 258.8 L1.88 261.41 L10.78 261.41 L7.01 260.49 L14.03 257.69
								 Z" class="st10"/>
				</g>
				<g id="shape145-299" v:mID="145" v:groupContext="shape" transform="translate(7.59799,-18.1692)">
					<title>Sheet.145</title>
					<path d="M0 257.69 L3.11 256.65 L10.52 259.65 L14.03 258.8 L12.21 261.41 L3.24 261.41 L7.01 260.49 L0 257.69 Z"
							class="st10"/>
				</g>
				<g id="shape146-301" v:mID="146" v:groupContext="shape" transform="translate(21.69,-12.0477)">
					<title>Sheet.146</title>
					<path d="M13.96 260.36 L10.84 261.41 L3.44 258.47 L0 259.32 L1.82 256.65 L10.71 256.65 L7.01 257.56 L13.96 260.36
								 Z" class="st10"/>
				</g>
				<g id="shape147-303" v:mID="147" v:groupContext="shape" transform="translate(0.06494,-7.09836)">
					<title>Sheet.147</title>
					<path d="M0 250.92 L0 261.41 L0 250.92 Z" class="st11"/>
					<path d="M0 250.92 L0 261.41" class="st12"/>
				</g>
				<g id="shape148-306" v:mID="148" v:groupContext="shape" transform="translate(42.6007,-7.09836)">
					<title>Sheet.148</title>
					<path d="M0 250.92 L0 261.41 L0 250.92 Z" class="st11"/>
					<path d="M0 250.92 L0 261.41" class="st12"/>
				</g>
			</g>
			<g id="group149-309" transform="translate(236.651,-116.72)" v:mID="149" v:groupContext="group">
				<title>Sheet.149</title>
				<g id="shape150-310" v:mID="150" v:groupContext="shape" transform="translate(0.0649401,0)">
					<title>Sheet.150</title>
					<path d="M42.54 254.11 C42.54 254.11 42.54 254.11 42.54 254.11 C42.54 258.15 32.99 261.41 21.3 261.41 C9.55 261.41
								 0 258.15 0 254.11 C0 250.08 9.55 246.81 21.3 246.81 C32.99 246.81 42.54 250.08 42.54 254.11 Z"
							class="st6"/>
				</g>
				<g id="shape151-312" v:mID="151" v:groupContext="shape" transform="translate(0.0649401,0)">
					<title>Sheet.151</title>
					<path d="M42.54 254.11 C42.54 254.11 42.54 254.11 42.54 254.11 C42.54 258.15 32.99 261.41 21.3 261.41 C9.55 261.41
								 0 258.15 0 254.11 C0 250.08 9.55 246.81 21.3 246.81 C32.99 246.81 42.54 250.08 42.54 254.11 Z"
							class="st7"/>
				</g>
				<g id="shape152-314" v:mID="152" v:groupContext="shape" transform="translate(0,-7.09836)">
					<title>Sheet.152</title>
					<path d="M0 250.99 L0 261.41 L42.6 261.41 L42.6 250.99 L0 250.99 Z" class="st6"/>
				</g>
				<g id="shape153-316" v:mID="153" v:groupContext="shape" transform="translate(0.0649401,-10.4196)">
					<title>Sheet.153</title>
					<path d="M42.54 254.11 C42.54 254.11 42.54 254.11 42.54 254.11 C42.54 258.15 32.99 261.41 21.3 261.41 C9.55 261.41
								 0 258.15 0 254.11 C0 250.08 9.55 246.81 21.3 246.81 C32.99 246.81 42.54 250.08 42.54 254.11 Z"
							class="st8"/>
				</g>
				<g id="shape154-318" v:mID="154" v:groupContext="shape" transform="translate(0.0649401,-10.4196)">
					<title>Sheet.154</title>
					<path d="M42.54 254.11 C42.54 254.11 42.54 254.11 42.54 254.11 C42.54 258.15 32.99 261.41 21.3 261.41 C9.55 261.41
								 0 258.15 0 254.11 C0 250.08 9.55 246.81 21.3 246.81 C32.99 246.81 42.54 250.08 42.54 254.11 Z"
							class="st9"/>
				</g>
				<g id="shape155-320" v:mID="155" v:groupContext="shape" transform="translate(21.8848,-18.2994)">
					<title>Sheet.155</title>
					<path d="M0 260.36 L3.11 261.41 L10.52 258.47 L13.96 259.32 L12.15 256.65 L3.24 256.65 L6.95 257.56 L0 260.36
								 Z" class="st8"/>
				</g>
				<g id="shape156-322" v:mID="156" v:groupContext="shape" transform="translate(6.55895,-12.6338)">
					<title>Sheet.156</title>
					<path d="M14.03 257.69 L10.91 256.65 L3.51 259.65 L0 258.8 L1.88 261.41 L10.78 261.41 L7.01 260.49 L14.03 257.69
								 Z" class="st8"/>
				</g>
				<g id="shape157-324" v:mID="157" v:groupContext="shape" transform="translate(7.33822,-18.4297)">
					<title>Sheet.157</title>
					<path d="M0 257.69 L3.11 256.65 L10.52 259.65 L14.03 258.8 L12.21 261.41 L3.24 261.41 L7.01 260.49 L0 257.69 Z"
							class="st8"/>
				</g>
				<g id="shape158-326" v:mID="158" v:groupContext="shape" transform="translate(21.4302,-12.3082)">
					<title>Sheet.158</title>
					<path d="M13.96 260.36 L10.84 261.41 L3.44 258.47 L0 259.32 L1.82 256.65 L10.71 256.65 L7.01 257.56 L13.96 260.36
								 Z" class="st8"/>
				</g>
				<g id="shape159-328" v:mID="159" v:groupContext="shape" transform="translate(22.1446,-18.039)">
					<title>Sheet.159</title>
					<path d="M0 260.36 L3.11 261.41 L10.52 258.47 L13.96 259.32 L12.15 256.65 L3.24 256.65 L6.95 257.56 L0 260.36
								 Z" class="st10"/>
				</g>
				<g id="shape160-330" v:mID="160" v:groupContext="shape" transform="translate(6.8187,-12.3733)">
					<title>Sheet.160</title>
					<path d="M14.03 257.69 L10.91 256.65 L3.51 259.65 L0 258.8 L1.88 261.41 L10.78 261.41 L7.01 260.49 L14.03 257.69
								 Z" class="st10"/>
				</g>
				<g id="shape161-332" v:mID="161" v:groupContext="shape" transform="translate(7.59799,-18.1692)">
					<title>Sheet.161</title>
					<path d="M0 257.69 L3.11 256.65 L10.52 259.65 L14.03 258.8 L12.21 261.41 L3.24 261.41 L7.01 260.49 L0 257.69 Z"
							class="st10"/>
				</g>
				<g id="shape162-334" v:mID="162" v:groupContext="shape" transform="translate(21.69,-12.0477)">
					<title>Sheet.162</title>
					<path d="M13.96 260.36 L10.84 261.41 L3.44 258.47 L0 259.32 L1.82 256.65 L10.71 256.65 L7.01 257.56 L13.96 260.36
								 Z" class="st10"/>
				</g>
				<g id="shape163-336" v:mID="163" v:groupContext="shape" transform="translate(0.06494,-7.09836)">
					<title>Sheet.163</title>
					<path d="M0 250.92 L0 261.41 L0 250.92 Z" class="st11"/>
					<path d="M0 250.92 L0 261.41" class="st12"/>
				</g>
				<g id="shape164-339" v:mID="164" v:groupContext="shape" transform="translate(42.6007,-7.09836)">
					<title>Sheet.164</title>
					<path d="M0 250.92 L0 261.41 L0 250.92 Z" class="st11"/>
					<path d="M0 250.92 L0 261.41" class="st12"/>
				</g>
			</g>
			<g id="group165-342" transform="translate(165.785,-49.6063)" v:mID="165" v:groupContext="group">
				<title>Sheet.165</title>
				<g id="shape166-343" v:mID="166" v:groupContext="shape" transform="translate(0.0649401,0)">
					<title>Sheet.166</title>
					<path d="M42.54 254.11 C42.54 254.11 42.54 254.11 42.54 254.11 C42.54 258.15 32.99 261.41 21.3 261.41 C9.55 261.41
								 0 258.15 0 254.11 C0 250.08 9.55 246.81 21.3 246.81 C32.99 246.81 42.54 250.08 42.54 254.11 Z"
							class="st6"/>
				</g>
				<g id="shape167-345" v:mID="167" v:groupContext="shape" transform="translate(0.0649401,0)">
					<title>Sheet.167</title>
					<path d="M42.54 254.11 C42.54 254.11 42.54 254.11 42.54 254.11 C42.54 258.15 32.99 261.41 21.3 261.41 C9.55 261.41
								 0 258.15 0 254.11 C0 250.08 9.55 246.81 21.3 246.81 C32.99 246.81 42.54 250.08 42.54 254.11 Z"
							class="st7"/>
				</g>
				<g id="shape168-347" v:mID="168" v:groupContext="shape" transform="translate(0,-7.09836)">
					<title>Sheet.168</title>
					<path d="M0 250.99 L0 261.41 L42.6 261.41 L42.6 250.99 L0 250.99 Z" class="st6"/>
				</g>
				<g id="shape169-349" v:mID="169" v:groupContext="shape" transform="translate(0.0649401,-10.4196)">
					<title>Sheet.169</title>
					<path d="M42.54 254.11 C42.54 254.11 42.54 254.11 42.54 254.11 C42.54 258.15 32.99 261.41 21.3 261.41 C9.55 261.41
								 0 258.15 0 254.11 C0 250.08 9.55 246.81 21.3 246.81 C32.99 246.81 42.54 250.08 42.54 254.11 Z"
							class="st8"/>
				</g>
				<g id="shape170-351" v:mID="170" v:groupContext="shape" transform="translate(0.0649401,-10.4196)">
					<title>Sheet.170</title>
					<path d="M42.54 254.11 C42.54 254.11 42.54 254.11 42.54 254.11 C42.54 258.15 32.99 261.41 21.3 261.41 C9.55 261.41
								 0 258.15 0 254.11 C0 250.08 9.55 246.81 21.3 246.81 C32.99 246.81 42.54 250.08 42.54 254.11 Z"
							class="st9"/>
				</g>
				<g id="shape171-353" v:mID="171" v:groupContext="shape" transform="translate(21.8848,-18.2994)">
					<title>Sheet.171</title>
					<path d="M0 260.36 L3.11 261.41 L10.52 258.47 L13.96 259.32 L12.15 256.65 L3.24 256.65 L6.95 257.56 L0 260.36
								 Z" class="st8"/>
				</g>
				<g id="shape172-355" v:mID="172" v:groupContext="shape" transform="translate(6.55895,-12.6338)">
					<title>Sheet.172</title>
					<path d="M14.03 257.69 L10.91 256.65 L3.51 259.65 L0 258.8 L1.88 261.41 L10.78 261.41 L7.01 260.49 L14.03 257.69
								 Z" class="st8"/>
				</g>
				<g id="shape173-357" v:mID="173" v:groupContext="shape" transform="translate(7.33822,-18.4297)">
					<title>Sheet.173</title>
					<path d="M0 257.69 L3.11 256.65 L10.52 259.65 L14.03 258.8 L12.21 261.41 L3.24 261.41 L7.01 260.49 L0 257.69 Z"
							class="st8"/>
				</g>
				<g id="shape174-359" v:mID="174" v:groupContext="shape" transform="translate(21.4302,-12.3082)">
					<title>Sheet.174</title>
					<path d="M13.96 260.36 L10.84 261.41 L3.44 258.47 L0 259.32 L1.82 256.65 L10.71 256.65 L7.01 257.56 L13.96 260.36
								 Z" class="st8"/>
				</g>
				<g id="shape175-361" v:mID="175" v:groupContext="shape" transform="translate(22.1446,-18.039)">
					<title>Sheet.175</title>
					<path d="M0 260.36 L3.11 261.41 L10.52 258.47 L13.96 259.32 L12.15 256.65 L3.24 256.65 L6.95 257.56 L0 260.36
								 Z" class="st10"/>
				</g>
				<g id="shape176-363" v:mID="176" v:groupContext="shape" transform="translate(6.8187,-12.3733)">
					<title>Sheet.176</title>
					<path d="M14.03 257.69 L10.91 256.65 L3.51 259.65 L0 258.8 L1.88 261.41 L10.78 261.41 L7.01 260.49 L14.03 257.69
								 Z" class="st10"/>
				</g>
				<g id="shape177-365" v:mID="177" v:groupContext="shape" transform="translate(7.59799,-18.1692)">
					<title>Sheet.177</title>
					<path d="M0 257.69 L3.11 256.65 L10.52 259.65 L14.03 258.8 L12.21 261.41 L3.24 261.41 L7.01 260.49 L0 257.69 Z"
							class="st10"/>
				</g>
				<g id="shape178-367" v:mID="178" v:groupContext="shape" transform="translate(21.69,-12.0477)">
					<title>Sheet.178</title>
					<path d="M13.96 260.36 L10.84 261.41 L3.44 258.47 L0 259.32 L1.82 256.65 L10.71 256.65 L7.01 257.56 L13.96 260.36
								 Z" class="st10"/>
				</g>
				<g id="shape179-369" v:mID="179" v:groupContext="shape" transform="translate(0.06494,-7.09836)">
					<title>Sheet.179</title>
					<path d="M0 250.92 L0 261.41 L0 250.92 Z" class="st11"/>
					<path d="M0 250.92 L0 261.41" class="st12"/>
				</g>
				<g id="shape180-372" v:mID="180" v:groupContext="shape" transform="translate(42.6007,-7.09836)">
					<title>Sheet.180</title>
					<path d="M0 250.92 L0 261.41 L0 250.92 Z" class="st11"/>
					<path d="M0 250.92 L0 261.41" class="st12"/>
				</g>
			</g>
			<g id="group181-375" transform="translate(236.651,-49.6063)" v:mID="181" v:groupContext="group">
				<title>Sheet.181</title>
				<g id="shape182-376" v:mID="182" v:groupContext="shape" transform="translate(0.0649401,0)">
					<title>Sheet.182</title>
					<path d="M42.54 254.11 C42.54 254.11 42.54 254.11 42.54 254.11 C42.54 258.15 32.99 261.41 21.3 261.41 C9.55 261.41
								 0 258.15 0 254.11 C0 250.08 9.55 246.81 21.3 246.81 C32.99 246.81 42.54 250.08 42.54 254.11 Z"
							class="st6"/>
				</g>
				<g id="shape183-378" v:mID="183" v:groupContext="shape" transform="translate(0.0649401,0)">
					<title>Sheet.183</title>
					<path d="M42.54 254.11 C42.54 254.11 42.54 254.11 42.54 254.11 C42.54 258.15 32.99 261.41 21.3 261.41 C9.55 261.41
								 0 258.15 0 254.11 C0 250.08 9.55 246.81 21.3 246.81 C32.99 246.81 42.54 250.08 42.54 254.11 Z"
							class="st7"/>
				</g>
				<g id="shape184-380" v:mID="184" v:groupContext="shape" transform="translate(0,-7.09836)">
					<title>Sheet.184</title>
					<path d="M0 250.99 L0 261.41 L42.6 261.41 L42.6 250.99 L0 250.99 Z" class="st6"/>
				</g>
				<g id="shape185-382" v:mID="185" v:groupContext="shape" transform="translate(0.0649401,-10.4196)">
					<title>Sheet.185</title>
					<path d="M42.54 254.11 C42.54 254.11 42.54 254.11 42.54 254.11 C42.54 258.15 32.99 261.41 21.3 261.41 C9.55 261.41
								 0 258.15 0 254.11 C0 250.08 9.55 246.81 21.3 246.81 C32.99 246.81 42.54 250.08 42.54 254.11 Z"
							class="st8"/>
				</g>
				<g id="shape186-384" v:mID="186" v:groupContext="shape" transform="translate(0.0649401,-10.4196)">
					<title>Sheet.186</title>
					<path d="M42.54 254.11 C42.54 254.11 42.54 254.11 42.54 254.11 C42.54 258.15 32.99 261.41 21.3 261.41 C9.55 261.41
								 0 258.15 0 254.11 C0 250.08 9.55 246.81 21.3 246.81 C32.99 246.81 42.54 250.08 42.54 254.11 Z"
							class="st9"/>
				</g>
				<g id="shape187-386" v:mID="187" v:groupContext="shape" transform="translate(21.8848,-18.2994)">
					<title>Sheet.187</title>
					<path d="M0 260.36 L3.11 261.41 L10.52 258.47 L13.96 259.32 L12.15 256.65 L3.24 256.65 L6.95 257.56 L0 260.36
								 Z" class="st8"/>
				</g>
				<g id="shape188-388" v:mID="188" v:groupContext="shape" transform="translate(6.55895,-12.6338)">
					<title>Sheet.188</title>
					<path d="M14.03 257.69 L10.91 256.65 L3.51 259.65 L0 258.8 L1.88 261.41 L10.78 261.41 L7.01 260.49 L14.03 257.69
								 Z" class="st8"/>
				</g>
				<g id="shape189-390" v:mID="189" v:groupContext="shape" transform="translate(7.33822,-18.4297)">
					<title>Sheet.189</title>
					<path d="M0 257.69 L3.11 256.65 L10.52 259.65 L14.03 258.8 L12.21 261.41 L3.24 261.41 L7.01 260.49 L0 257.69 Z"
							class="st8"/>
				</g>
				<g id="shape190-392" v:mID="190" v:groupContext="shape" transform="translate(21.4302,-12.3082)">
					<title>Sheet.190</title>
					<path d="M13.96 260.36 L10.84 261.41 L3.44 258.47 L0 259.32 L1.82 256.65 L10.71 256.65 L7.01 257.56 L13.96 260.36
								 Z" class="st8"/>
				</g>
				<g id="shape191-394" v:mID="191" v:groupContext="shape" transform="translate(22.1446,-18.039)">
					<title>Sheet.191</title>
					<path d="M0 260.36 L3.11 261.41 L10.52 258.47 L13.96 259.32 L12.15 256.65 L3.24 256.65 L6.95 257.56 L0 260.36
								 Z" class="st10"/>
				</g>
				<g id="shape192-396" v:mID="192" v:groupContext="shape" transform="translate(6.8187,-12.3733)">
					<title>Sheet.192</title>
					<path d="M14.03 257.69 L10.91 256.65 L3.51 259.65 L0 258.8 L1.88 261.41 L10.78 261.41 L7.01 260.49 L14.03 257.69
								 Z" class="st10"/>
				</g>
				<g id="shape193-398" v:mID="193" v:groupContext="shape" transform="translate(7.59799,-18.1692)">
					<title>Sheet.193</title>
					<path d="M0 257.69 L3.11 256.65 L10.52 259.65 L14.03 258.8 L12.21 261.41 L3.24 261.41 L7.01 260.49 L0 257.69 Z"
							class="st10"/>
				</g>
				<g id="shape194-400" v:mID="194" v:groupContext="shape" transform="translate(21.69,-12.0477)">
					<title>Sheet.194</title>
					<path d="M13.96 260.36 L10.84 261.41 L3.44 258.47 L0 259.32 L1.82 256.65 L10.71 256.65 L7.01 257.56 L13.96 260.36
								 Z" class="st10"/>
				</g>
				<g id="shape195-402" v:mID="195" v:groupContext="shape" transform="translate(0.06494,-7.09836)">
					<title>Sheet.195</title>
					<path d="M0 250.92 L0 261.41 L0 250.92 Z" class="st11"/>
					<path d="M0 250.92 L0 261.41" class="st12"/>
				</g>
				<g id="shape196-405" v:mID="196" v:groupContext="shape" transform="translate(42.6007,-7.09836)">
					<title>Sheet.196</title>
					<path d="M0 250.92 L0 261.41 L0 250.92 Z" class="st11"/>
					<path d="M0 250.92 L0 261.41" class="st12"/>
				</g>
			</g>
			<g id="group197-408" transform="translate(321.69,-116.72)" v:mID="197" v:groupContext="group">
				<title>Sheet.197</title>
				<g id="shape198-409" v:mID="198" v:groupContext="shape" transform="translate(0.0649401,0)">
					<title>Sheet.198</title>
					<path d="M42.54 254.11 C42.54 254.11 42.54 254.11 42.54 254.11 C42.54 258.15 32.99 261.41 21.3 261.41 C9.55 261.41
								 0 258.15 0 254.11 C0 250.08 9.55 246.81 21.3 246.81 C32.99 246.81 42.54 250.08 42.54 254.11 Z"
							class="st6"/>
				</g>
				<g id="shape199-411" v:mID="199" v:groupContext="shape" transform="translate(0.0649401,0)">
					<title>Sheet.199</title>
					<path d="M42.54 254.11 C42.54 254.11 42.54 254.11 42.54 254.11 C42.54 258.15 32.99 261.41 21.3 261.41 C9.55 261.41
								 0 258.15 0 254.11 C0 250.08 9.55 246.81 21.3 246.81 C32.99 246.81 42.54 250.08 42.54 254.11 Z"
							class="st7"/>
				</g>
				<g id="shape200-413" v:mID="200" v:groupContext="shape" transform="translate(0,-7.09836)">
					<title>Sheet.200</title>
					<path d="M0 250.99 L0 261.41 L42.6 261.41 L42.6 250.99 L0 250.99 Z" class="st6"/>
				</g>
				<g id="shape201-415" v:mID="201" v:groupContext="shape" transform="translate(0.0649401,-10.4196)">
					<title>Sheet.201</title>
					<path d="M42.54 254.11 C42.54 254.11 42.54 254.11 42.54 254.11 C42.54 258.15 32.99 261.41 21.3 261.41 C9.55 261.41
								 0 258.15 0 254.11 C0 250.08 9.55 246.81 21.3 246.81 C32.99 246.81 42.54 250.08 42.54 254.11 Z"
							class="st8"/>
				</g>
				<g id="shape202-417" v:mID="202" v:groupContext="shape" transform="translate(0.0649401,-10.4196)">
					<title>Sheet.202</title>
					<path d="M42.54 254.11 C42.54 254.11 42.54 254.11 42.54 254.11 C42.54 258.15 32.99 261.41 21.3 261.41 C9.55 261.41
								 0 258.15 0 254.11 C0 250.08 9.55 246.81 21.3 246.81 C32.99 246.81 42.54 250.08 42.54 254.11 Z"
							class="st9"/>
				</g>
				<g id="shape203-419" v:mID="203" v:groupContext="shape" transform="translate(21.8848,-18.2994)">
					<title>Sheet.203</title>
					<path d="M0 260.36 L3.11 261.41 L10.52 258.47 L13.96 259.32 L12.15 256.65 L3.24 256.65 L6.95 257.56 L0 260.36
								 Z" class="st8"/>
				</g>
				<g id="shape204-421" v:mID="204" v:groupContext="shape" transform="translate(6.55895,-12.6338)">
					<title>Sheet.204</title>
					<path d="M14.03 257.69 L10.91 256.65 L3.51 259.65 L0 258.8 L1.88 261.41 L10.78 261.41 L7.01 260.49 L14.03 257.69
								 Z" class="st8"/>
				</g>
				<g id="shape205-423" v:mID="205" v:groupContext="shape" transform="translate(7.33822,-18.4297)">
					<title>Sheet.205</title>
					<path d="M0 257.69 L3.11 256.65 L10.52 259.65 L14.03 258.8 L12.21 261.41 L3.24 261.41 L7.01 260.49 L0 257.69 Z"
							class="st8"/>
				</g>
				<g id="shape206-425" v:mID="206" v:groupContext="shape" transform="translate(21.4302,-12.3082)">
					<title>Sheet.206</title>
					<path d="M13.96 260.36 L10.84 261.41 L3.44 258.47 L0 259.32 L1.82 256.65 L10.71 256.65 L7.01 257.56 L13.96 260.36
								 Z" class="st8"/>
				</g>
				<g id="shape207-427" v:mID="207" v:groupContext="shape" transform="translate(22.1446,-18.039)">
					<title>Sheet.207</title>
					<path d="M0 260.36 L3.11 261.41 L10.52 258.47 L13.96 259.32 L12.15 256.65 L3.24 256.65 L6.95 257.56 L0 260.36
								 Z" class="st10"/>
				</g>
				<g id="shape208-429" v:mID="208" v:groupContext="shape" transform="translate(6.8187,-12.3733)">
					<title>Sheet.208</title>
					<path d="M14.03 257.69 L10.91 256.65 L3.51 259.65 L0 258.8 L1.88 261.41 L10.78 261.41 L7.01 260.49 L14.03 257.69
								 Z" class="st10"/>
				</g>
				<g id="shape209-431" v:mID="209" v:groupContext="shape" transform="translate(7.59799,-18.1692)">
					<title>Sheet.209</title>
					<path d="M0 257.69 L3.11 256.65 L10.52 259.65 L14.03 258.8 L12.21 261.41 L3.24 261.41 L7.01 260.49 L0 257.69 Z"
							class="st10"/>
				</g>
				<g id="shape210-433" v:mID="210" v:groupContext="shape" transform="translate(21.69,-12.0477)">
					<title>Sheet.210</title>
					<path d="M13.96 260.36 L10.84 261.41 L3.44 258.47 L0 259.32 L1.82 256.65 L10.71 256.65 L7.01 257.56 L13.96 260.36
								 Z" class="st10"/>
				</g>
				<g id="shape211-435" v:mID="211" v:groupContext="shape" transform="translate(0.06494,-7.09836)">
					<title>Sheet.211</title>
					<path d="M0 250.92 L0 261.41 L0 250.92 Z" class="st11"/>
					<path d="M0 250.92 L0 261.41" class="st12"/>
				</g>
				<g id="shape212-438" v:mID="212" v:groupContext="shape" transform="translate(42.6007,-7.09836)">
					<title>Sheet.212</title>
					<path d="M0 250.92 L0 261.41 L0 250.92 Z" class="st11"/>
					<path d="M0 250.92 L0 261.41" class="st12"/>
				</g>
			</g>
			<g id="group213-441" transform="translate(392.557,-116.72)" v:mID="213" v:groupContext="group">
				<title>Sheet.213</title>
				<g id="shape214-442" v:mID="214" v:groupContext="shape" transform="translate(0.0649401,0)">
					<title>Sheet.214</title>
					<path d="M42.54 254.11 C42.54 254.11 42.54 254.11 42.54 254.11 C42.54 258.15 32.99 261.41 21.3 261.41 C9.55 261.41
								 0 258.15 0 254.11 C0 250.08 9.55 246.81 21.3 246.81 C32.99 246.81 42.54 250.08 42.54 254.11 Z"
							class="st6"/>
				</g>
				<g id="shape215-444" v:mID="215" v:groupContext="shape" transform="translate(0.0649401,0)">
					<title>Sheet.215</title>
					<path d="M42.54 254.11 C42.54 254.11 42.54 254.11 42.54 254.11 C42.54 258.15 32.99 261.41 21.3 261.41 C9.55 261.41
								 0 258.15 0 254.11 C0 250.08 9.55 246.81 21.3 246.81 C32.99 246.81 42.54 250.08 42.54 254.11 Z"
							class="st7"/>
				</g>
				<g id="shape216-446" v:mID="216" v:groupContext="shape" transform="translate(0,-7.09836)">
					<title>Sheet.216</title>
					<path d="M0 250.99 L0 261.41 L42.6 261.41 L42.6 250.99 L0 250.99 Z" class="st6"/>
				</g>
				<g id="shape217-448" v:mID="217" v:groupContext="shape" transform="translate(0.0649401,-10.4196)">
					<title>Sheet.217</title>
					<path d="M42.54 254.11 C42.54 254.11 42.54 254.11 42.54 254.11 C42.54 258.15 32.99 261.41 21.3 261.41 C9.55 261.41
								 0 258.15 0 254.11 C0 250.08 9.55 246.81 21.3 246.81 C32.99 246.81 42.54 250.08 42.54 254.11 Z"
							class="st8"/>
				</g>
				<g id="shape218-450" v:mID="218" v:groupContext="shape" transform="translate(0.0649401,-10.4196)">
					<title>Sheet.218</title>
					<path d="M42.54 254.11 C42.54 254.11 42.54 254.11 42.54 254.11 C42.54 258.15 32.99 261.41 21.3 261.41 C9.55 261.41
								 0 258.15 0 254.11 C0 250.08 9.55 246.81 21.3 246.81 C32.99 246.81 42.54 250.08 42.54 254.11 Z"
							class="st9"/>
				</g>
				<g id="shape219-452" v:mID="219" v:groupContext="shape" transform="translate(21.8848,-18.2994)">
					<title>Sheet.219</title>
					<path d="M0 260.36 L3.11 261.41 L10.52 258.47 L13.96 259.32 L12.15 256.65 L3.24 256.65 L6.95 257.56 L0 260.36
								 Z" class="st8"/>
				</g>
				<g id="shape220-454" v:mID="220" v:groupContext="shape" transform="translate(6.55895,-12.6338)">
					<title>Sheet.220</title>
					<path d="M14.03 257.69 L10.91 256.65 L3.51 259.65 L0 258.8 L1.88 261.41 L10.78 261.41 L7.01 260.49 L14.03 257.69
								 Z" class="st8"/>
				</g>
				<g id="shape221-456" v:mID="221" v:groupContext="shape" transform="translate(7.33822,-18.4297)">
					<title>Sheet.221</title>
					<path d="M0 257.69 L3.11 256.65 L10.52 259.65 L14.03 258.8 L12.21 261.41 L3.24 261.41 L7.01 260.49 L0 257.69 Z"
							class="st8"/>
				</g>
				<g id="shape222-458" v:mID="222" v:groupContext="shape" transform="translate(21.4302,-12.3082)">
					<title>Sheet.222</title>
					<path d="M13.96 260.36 L10.84 261.41 L3.44 258.47 L0 259.32 L1.82 256.65 L10.71 256.65 L7.01 257.56 L13.96 260.36
								 Z" class="st8"/>
				</g>
				<g id="shape223-460" v:mID="223" v:groupContext="shape" transform="translate(22.1446,-18.039)">
					<title>Sheet.223</title>
					<path d="M0 260.36 L3.11 261.41 L10.52 258.47 L13.96 259.32 L12.15 256.65 L3.24 256.65 L6.95 257.56 L0 260.36
								 Z" class="st10"/>
				</g>
				<g id="shape224-462" v:mID="224" v:groupContext="shape" transform="translate(6.8187,-12.3733)">
					<title>Sheet.224</title>
					<path d="M14.03 257.69 L10.91 256.65 L3.51 259.65 L0 258.8 L1.88 261.41 L10.78 261.41 L7.01 260.49 L14.03 257.69
								 Z" class="st10"/>
				</g>
				<g id="shape225-464" v:mID="225" v:groupContext="shape" transform="translate(7.59799,-18.1692)">
					<title>Sheet.225</title>
					<path d="M0 257.69 L3.11 256.65 L10.52 259.65 L14.03 258.8 L12.21 261.41 L3.24 261.41 L7.01 260.49 L0 257.69 Z"
							class="st10"/>
				</g>
				<g id="shape226-466" v:mID="226" v:groupContext="shape" transform="translate(21.69,-12.0477)">
					<title>Sheet.226</title>
					<path d="M13.96 260.36 L10.84 261.41 L3.44 258.47 L0 259.32 L1.82 256.65 L10.71 256.65 L7.01 257.56 L13.96 260.36
								 Z" class="st10"/>
				</g>
				<g id="shape227-468" v:mID="227" v:groupContext="shape" transform="translate(0.06494,-7.09836)">
					<title>Sheet.227</title>
					<path d="M0 250.92 L0 261.41 L0 250.92 Z" class="st11"/>
					<path d="M0 250.92 L0 261.41" class="st12"/>
				</g>
				<g id="shape228-471" v:mID="228" v:groupContext="shape" transform="translate(42.6007,-7.09836)">
					<title>Sheet.228</title>
					<path d="M0 250.92 L0 261.41 L0 250.92 Z" class="st11"/>
					<path d="M0 250.92 L0 261.41" class="st12"/>
				</g>
			</g>
			<g id="group229-474" transform="translate(321.69,-49.6063)" v:mID="229" v:groupContext="group">
				<title>Sheet.229</title>
				<g id="shape230-475" v:mID="230" v:groupContext="shape" transform="translate(0.0649401,0)">
					<title>Sheet.230</title>
					<path d="M42.54 254.11 C42.54 254.11 42.54 254.11 42.54 254.11 C42.54 258.15 32.99 261.41 21.3 261.41 C9.55 261.41
								 0 258.15 0 254.11 C0 250.08 9.55 246.81 21.3 246.81 C32.99 246.81 42.54 250.08 42.54 254.11 Z"
							class="st6"/>
				</g>
				<g id="shape231-477" v:mID="231" v:groupContext="shape" transform="translate(0.0649401,0)">
					<title>Sheet.231</title>
					<path d="M42.54 254.11 C42.54 254.11 42.54 254.11 42.54 254.11 C42.54 258.15 32.99 261.41 21.3 261.41 C9.55 261.41
								 0 258.15 0 254.11 C0 250.08 9.55 246.81 21.3 246.81 C32.99 246.81 42.54 250.08 42.54 254.11 Z"
							class="st7"/>
				</g>
				<g id="shape232-479" v:mID="232" v:groupContext="shape" transform="translate(0,-7.09836)">
					<title>Sheet.232</title>
					<path d="M0 250.99 L0 261.41 L42.6 261.41 L42.6 250.99 L0 250.99 Z" class="st6"/>
				</g>
				<g id="shape233-481" v:mID="233" v:groupContext="shape" transform="translate(0.0649401,-10.4196)">
					<title>Sheet.233</title>
					<path d="M42.54 254.11 C42.54 254.11 42.54 254.11 42.54 254.11 C42.54 258.15 32.99 261.41 21.3 261.41 C9.55 261.41
								 0 258.15 0 254.11 C0 250.08 9.55 246.81 21.3 246.81 C32.99 246.81 42.54 250.08 42.54 254.11 Z"
							class="st8"/>
				</g>
				<g id="shape234-483" v:mID="234" v:groupContext="shape" transform="translate(0.0649401,-10.4196)">
					<title>Sheet.234</title>
					<path d="M42.54 254.11 C42.54 254.11 42.54 254.11 42.54 254.11 C42.54 258.15 32.99 261.41 21.3 261.41 C9.55 261.41
								 0 258.15 0 254.11 C0 250.08 9.55 246.81 21.3 246.81 C32.99 246.81 42.54 250.08 42.54 254.11 Z"
							class="st9"/>
				</g>
				<g id="shape235-485" v:mID="235" v:groupContext="shape" transform="translate(21.8848,-18.2994)">
					<title>Sheet.235</title>
					<path d="M0 260.36 L3.11 261.41 L10.52 258.47 L13.96 259.32 L12.15 256.65 L3.24 256.65 L6.95 257.56 L0 260.36
								 Z" class="st8"/>
				</g>
				<g id="shape236-487" v:mID="236" v:groupContext="shape" transform="translate(6.55895,-12.6338)">
					<title>Sheet.236</title>
					<path d="M14.03 257.69 L10.91 256.65 L3.51 259.65 L0 258.8 L1.88 261.41 L10.78 261.41 L7.01 260.49 L14.03 257.69
								 Z" class="st8"/>
				</g>
				<g id="shape237-489" v:mID="237" v:groupContext="shape" transform="translate(7.33822,-18.4297)">
					<title>Sheet.237</title>
					<path d="M0 257.69 L3.11 256.65 L10.52 259.65 L14.03 258.8 L12.21 261.41 L3.24 261.41 L7.01 260.49 L0 257.69 Z"
							class="st8"/>
				</g>
				<g id="shape238-491" v:mID="238" v:groupContext="shape" transform="translate(21.4302,-12.3082)">
					<title>Sheet.238</title>
					<path d="M13.96 260.36 L10.84 261.41 L3.44 258.47 L0 259.32 L1.82 256.65 L10.71 256.65 L7.01 257.56 L13.96 260.36
								 Z" class="st8"/>
				</g>
				<g id="shape239-493" v:mID="239" v:groupContext="shape" transform="translate(22.1446,-18.039)">
					<title>Sheet.239</title>
					<path d="M0 260.36 L3.11 261.41 L10.52 258.47 L13.96 259.32 L12.15 256.65 L3.24 256.65 L6.95 257.56 L0 260.36
								 Z" class="st10"/>
				</g>
				<g id="shape240-495" v:mID="240" v:groupContext="shape" transform="translate(6.8187,-12.3733)">
					<title>Sheet.240</title>
					<path d="M14.03 257.69 L10.91 256.65 L3.51 259.65 L0 258.8 L1.88 261.41 L10.78 261.41 L7.01 260.49 L14.03 257.69
								 Z" class="st10"/>
				</g>
				<g id="shape241-497" v:mID="241" v:groupContext="shape" transform="translate(7.59799,-18.1692)">
					<title>Sheet.241</title>
					<path d="M0 257.69 L3.11 256.65 L10.52 259.65 L14.03 258.8 L12.21 261.41 L3.24 261.41 L7.01 260.49 L0 257.69 Z"
							class="st10"/>
				</g>
				<g id="shape242-499" v:mID="242" v:groupContext="shape" transform="translate(21.69,-12.0477)">
					<title>Sheet.242</title>
					<path d="M13.96 260.36 L10.84 261.41 L3.44 258.47 L0 259.32 L1.82 256.65 L10.71 256.65 L7.01 257.56 L13.96 260.36
								 Z" class="st10"/>
				</g>
				<g id="shape243-501" v:mID="243" v:groupContext="shape" transform="translate(0.06494,-7.09836)">
					<title>Sheet.243</title>
					<path d="M0 250.92 L0 261.41 L0 250.92 Z" class="st11"/>
					<path d="M0 250.92 L0 261.41" class="st12"/>
				</g>
				<g id="shape244-504" v:mID="244" v:groupContext="shape" transform="translate(42.6007,-7.09836)">
					<title>Sheet.244</title>
					<path d="M0 250.92 L0 261.41 L0 250.92 Z" class="st11"/>
					<path d="M0 250.92 L0 261.41" class="st12"/>
				</g>
			</g>
			<g id="group245-507" transform="translate(392.557,-49.6063)" v:mID="245" v:groupContext="group">
				<title>Sheet.245</title>
				<g id="shape246-508" v:mID="246" v:groupContext="shape" transform="translate(0.0649401,0)">
					<title>Sheet.246</title>
					<path d="M42.54 254.11 C42.54 254.11 42.54 254.11 42.54 254.11 C42.54 258.15 32.99 261.41 21.3 261.41 C9.55 261.41
								 0 258.15 0 254.11 C0 250.08 9.55 246.81 21.3 246.81 C32.99 246.81 42.54 250.08 42.54 254.11 Z"
							class="st6"/>
				</g>
				<g id="shape247-510" v:mID="247" v:groupContext="shape" transform="translate(0.0649401,0)">
					<title>Sheet.247</title>
					<path d="M42.54 254.11 C42.54 254.11 42.54 254.11 42.54 254.11 C42.54 258.15 32.99 261.41 21.3 261.41 C9.55 261.41
								 0 258.15 0 254.11 C0 250.08 9.55 246.81 21.3 246.81 C32.99 246.81 42.54 250.08 42.54 254.11 Z"
							class="st7"/>
				</g>
				<g id="shape248-512" v:mID="248" v:groupContext="shape" transform="translate(0,-7.09836)">
					<title>Sheet.248</title>
					<path d="M0 250.99 L0 261.41 L42.6 261.41 L42.6 250.99 L0 250.99 Z" class="st6"/>
				</g>
				<g id="shape249-514" v:mID="249" v:groupContext="shape" transform="translate(0.0649401,-10.4196)">
					<title>Sheet.249</title>
					<path d="M42.54 254.11 C42.54 254.11 42.54 254.11 42.54 254.11 C42.54 258.15 32.99 261.41 21.3 261.41 C9.55 261.41
								 0 258.15 0 254.11 C0 250.08 9.55 246.81 21.3 246.81 C32.99 246.81 42.54 250.08 42.54 254.11 Z"
							class="st8"/>
				</g>
				<g id="shape250-516" v:mID="250" v:groupContext="shape" transform="translate(0.0649401,-10.4196)">
					<title>Sheet.250</title>
					<path d="M42.54 254.11 C42.54 254.11 42.54 254.11 42.54 254.11 C42.54 258.15 32.99 261.41 21.3 261.41 C9.55 261.41
								 0 258.15 0 254.11 C0 250.08 9.55 246.81 21.3 246.81 C32.99 246.81 42.54 250.08 42.54 254.11 Z"
							class="st9"/>
				</g>
				<g id="shape251-518" v:mID="251" v:groupContext="shape" transform="translate(21.8848,-18.2994)">
					<title>Sheet.251</title>
					<path d="M0 260.36 L3.11 261.41 L10.52 258.47 L13.96 259.32 L12.15 256.65 L3.24 256.65 L6.95 257.56 L0 260.36
								 Z" class="st8"/>
				</g>
				<g id="shape252-520" v:mID="252" v:groupContext="shape" transform="translate(6.55895,-12.6338)">
					<title>Sheet.252</title>
					<path d="M14.03 257.69 L10.91 256.65 L3.51 259.65 L0 258.8 L1.88 261.41 L10.78 261.41 L7.01 260.49 L14.03 257.69
								 Z" class="st8"/>
				</g>
				<g id="shape253-522" v:mID="253" v:groupContext="shape" transform="translate(7.33822,-18.4297)">
					<title>Sheet.253</title>
					<path d="M0 257.69 L3.11 256.65 L10.52 259.65 L14.03 258.8 L12.21 261.41 L3.24 261.41 L7.01 260.49 L0 257.69 Z"
							class="st8"/>
				</g>
				<g id="shape254-524" v:mID="254" v:groupContext="shape" transform="translate(21.4302,-12.3082)">
					<title>Sheet.254</title>
					<path d="M13.96 260.36 L10.84 261.41 L3.44 258.47 L0 259.32 L1.82 256.65 L10.71 256.65 L7.01 257.56 L13.96 260.36
								 Z" class="st8"/>
				</g>
				<g id="shape255-526" v:mID="255" v:groupContext="shape" transform="translate(22.1446,-18.039)">
					<title>Sheet.255</title>
					<path d="M0 260.36 L3.11 261.41 L10.52 258.47 L13.96 259.32 L12.15 256.65 L3.24 256.65 L6.95 257.56 L0 260.36
								 Z" class="st10"/>
				</g>
				<g id="shape256-528" v:mID="256" v:groupContext="shape" transform="translate(6.8187,-12.3733)">
					<title>Sheet.256</title>
					<path d="M14.03 257.69 L10.91 256.65 L3.51 259.65 L0 258.8 L1.88 261.41 L10.78 261.41 L7.01 260.49 L14.03 257.69
								 Z" class="st10"/>
				</g>
				<g id="shape257-530" v:mID="257" v:groupContext="shape" transform="translate(7.59799,-18.1692)">
					<title>Sheet.257</title>
					<path d="M0 257.69 L3.11 256.65 L10.52 259.65 L14.03 258.8 L12.21 261.41 L3.24 261.41 L7.01 260.49 L0 257.69 Z"
							class="st10"/>
				</g>
				<g id="shape258-532" v:mID="258" v:groupContext="shape" transform="translate(21.69,-12.0477)">
					<title>Sheet.258</title>
					<path d="M13.96 260.36 L10.84 261.41 L3.44 258.47 L0 259.32 L1.82 256.65 L10.71 256.65 L7.01 257.56 L13.96 260.36
								 Z" class="st10"/>
				</g>
				<g id="shape259-534" v:mID="259" v:groupContext="shape" transform="translate(0.06494,-7.09836)">
					<title>Sheet.259</title>
					<path d="M0 250.92 L0 261.41 L0 250.92 Z" class="st11"/>
					<path d="M0 250.92 L0 261.41" class="st12"/>
				</g>
				<g id="shape260-537" v:mID="260" v:groupContext="shape" transform="translate(42.6007,-7.09836)">
					<title>Sheet.260</title>
					<path d="M0 250.92 L0 261.41 L0 250.92 Z" class="st11"/>
					<path d="M0 250.92 L0 261.41" class="st12"/>
				</g>
			</g>
			<g id="shape261-540" v:mID="261" v:groupContext="shape" transform="translate(298.258,148.022) rotate(90)">
				<title>Sheet.261</title>
				<path d="M0 261.41 L34.02 261.41" class="st13"/>
			</g>
			<g id="shape263-543" v:mID="263" v:groupContext="shape" transform="translate(363.455,148.022) rotate(90)">
				<title>Sheet.263</title>
				<path d="M0 261.41 L34.02 261.41" class="st13"/>
			</g>
			<g id="shape264-546" v:mID="264" v:groupContext="shape" transform="translate(190.357,-69.4825) rotate(33.6901)">
				<title>Sheet.264</title>
				<path d="M0 261.41 L61.32 261.41" class="st13"/>
			</g>
			<g id="shape265-549" v:mID="265" v:groupContext="shape" transform="translate(232.089,372.529) rotate(147.995)">
				<title>Sheet.265</title>
				<path d="M0 261.41 L53.48 261.41" class="st13"/>
			</g>
			<g id="shape266-552" v:mID="266" v:groupContext="shape" transform="translate(-129.069,-82.117) rotate(-41.855)">
				<title>Sheet.266</title>
				<path d="M0 261.41 L91.34 261.41" class="st13"/>
			</g>
			<g id="shape267-555" v:mID="267" v:groupContext="shape" transform="translate(-62.3337,-69.6924) rotate(-43.9391)">
				<title>Sheet.267</title>
				<path d="M0 261.41 L43.3 261.41" class="st13"/>
			</g>
			<g id="shape272-558" v:mID="272" v:groupContext="shape" transform="translate(444.445,94.8652) rotate(90)">
				<title>Sheet.272</title>
				<path d="M0 261.41 L21.17 261.41" class="st13"/>
			</g>
			<g id="shape273-561" v:mID="273" v:groupContext="shape" transform="translate(520.98,93.3534) rotate(90)">
				<title>Sheet.273</title>
				<path d="M0 261.41 L22.68 261.41" class="st13"/>
			</g>
			<g id="shape274-564" v:mID="274" v:groupContext="shape" transform="translate(448.494,148.022) rotate(90)">
				<title>Sheet.274</title>
				<path d="M0 261.41 L36.85 261.41" class="st13"/>
			</g>
			<g id="shape275-567" v:mID="275" v:groupContext="shape" transform="translate(519.36,148.022) rotate(90)">
				<title>Sheet.275</title>
				<path d="M0 261.41 L34.02 261.41" class="st13"/>
			</g>
			<g id="shape276-570" v:mID="276" v:groupContext="shape" transform="translate(322.45,-78.9436) rotate(29.7449)">
				<title>Sheet.276</title>
				<path d="M0 261.41 L68.56 261.41" class="st13"/>
			</g>
			<g id="shape277-573" v:mID="277" v:groupContext="shape" transform="translate(49.5475,-29.0094) rotate(-35.0958)">
				<title>Sheet.277</title>
				<path d="M0 261.41 L64.09 261.41" class="st13"/>
			</g>
			<g id="shape278-576" v:mID="278" v:groupContext="shape" transform="translate(604.4,148.022) rotate(90)">
				<title>Sheet.278</title>
				<path d="M0 261.41 L34.02 261.41" class="st13"/>
			</g>
			<g id="shape279-579" v:mID="279" v:groupContext="shape" transform="translate(675.266,148.022) rotate(90)">
				<title>Sheet.279</title>
				<path d="M0 261.41 L34.02 261.41" class="st13"/>
			</g>
			<g id="shape280-582" v:mID="280" v:groupContext="shape" transform="translate(478.356,-78.9436) rotate(29.7449)">
				<title>Sheet.280</title>
				<path d="M0 261.41 L68.56 261.41" class="st13"/>
			</g>
			<g id="shape281-585" v:mID="281" v:groupContext="shape" transform="translate(537.883,374.987) rotate(150.255)">
				<title>Sheet.281</title>
				<path d="M0 261.41 L68.56 261.41" class="st13"/>
			</g>
			<g id="shape282-588" v:mID="282" v:groupContext="shape" transform="translate(158.74,-225.354)">
				<title>Sheet.282</title>
				<path d="M0 261.41 L134.65 261.41" class="st13"/>
			</g>
			<g id="shape283-591" v:mID="283" v:groupContext="shape" transform="translate(343.583,-141.703) rotate(45)">
				<title>Sheet.283</title>
				<path d="M0 261.41 L17.67 261.41" class="st13"/>
			</g>
			<g id="shape284-594" v:mID="284" v:groupContext="shape" transform="translate(209.764,-184.252)">
				<title>Sheet.284</title>
				<path d="M0 261.41 L19.84 261.41" class="st13"/>
			</g>
			<g id="shape285-597" v:mID="285" v:groupContext="shape" transform="translate(488.32,224.928) rotate(134.061)">
				<title>Sheet.285</title>
				<path d="M0 261.41 L24.46 261.41" class="st13"/>
			</g>
			<g id="shape286-600" v:mID="286" v:groupContext="shape" transform="translate(359.323,292.886) rotate(165.069)">
				<title>Sheet.286</title>
				<path d="M0 261.41 L88.01 261.41" class="st13"/>
			</g>
			<g id="shape287-603" v:mID="287" v:groupContext="shape" transform="translate(212.841,-216.026) rotate(11.3099)">
				<title>Sheet.287</title>
				<path d="M0 261.41 L86.72 261.41" class="st13"/>
			</g>
			<g id="shape288-606" v:mID="288" v:groupContext="shape" transform="translate(479.646,-99.1836) rotate(45)">
				<title>Sheet.288</title>
				<path d="M0 261.41 L43.06 261.41" class="st13"/>
			</g>
			<g id="shape289-609" v:mID="289" v:groupContext="shape" transform="translate(512.41,-145.152) rotate(41.6335)">
				<title>Sheet.289</title>
				<path d="M0 261.41 L85.33 261.41" class="st13"/>
			</g>
			<g id="shape290-612" v:mID="290" v:groupContext="shape" transform="translate(2.77165,-227.305)">
				<title>Sheet.290</title>
				<desc>OSPF Area 0 (Backbone)</desc>
				<v:textBlock v:margins="rect(4,4,4,4)" v:tabSpace="42.5197"/>
				<v:textRect cx="76" cy="246.067" width="152" height="30.6813"/>
				<rect x="0" y="230.726" width="152" height="30.6813" class="st14"/>
				<text x="4" y="242.47" class="st15" v:langID="1033"><v:paragraph/><v:tabList/>OSPF Area 0<v:newlineChar/><tspan
							x="4" dy="1.2em" class="st16">(</tspan>Backbone)</text>			</g>
			<g id="shape291-616" v:mID="291" v:groupContext="shape" transform="translate(0,-7.08661)">
				<title>Sheet.291</title>
				<desc>OSPF Area 1</desc>
				<v:textBlock v:margins="rect(4,4,4,4)" v:tabSpace="42.5197"/>
				<v:textRect cx="72.2835" cy="246.067" width="144.57" height="30.6813"/>
				<rect x="0" y="230.726" width="144.567" height="30.6813" class="st14"/>
				<text x="36.63" y="249.67" class="st17" v:langID="1033"><v:paragraph v:horizAlign="1"/><v:tabList/>OSPF Area 1</text>			</g>
			<g id="shape294-619" v:mID="294" v:groupContext="shape" transform="translate(308.976,-7.08661)">
				<title>Sheet.294</title>
				<desc>OSPF Area 3</desc>
				<v:textBlock v:margins="rect(4,4,4,4)" v:tabSpace="42.5197"/>
				<v:textRect cx="72.2835" cy="246.067" width="144.57" height="30.6813"/>
				<rect x="0" y="230.726" width="144.567" height="30.6813" class="st14"/>
				<text x="36.63" y="249.67" class="st17" v:langID="1033"><v:paragraph v:horizAlign="1"/><v:tabList/>OSPF Area 3</text>			</g>
			<g id="shape299-622" v:mID="299" v:groupContext="shape" transform="translate(201.26,-78.8031)">
				<title>Rectangle.242</title>
				<desc>LSA</desc>
				<v:userDefs>
					<v:ud v:nameU="visVersion" v:val="VT0(15):26"/>
				</v:userDefs>
				<v:textBlock v:margins="rect(4,2,4,2)" v:tabSpace="42.5197"/>
				<v:textRect cx="10.6299" cy="255.171" width="21.26" height="12.4724"/>
				<rect x="0" y="248.935" width="21.2598" height="12.4724" rx="1.41732" ry="1.41732" class="st18"/>
				<text x="2.93" y="257.17" class="st19" v:langID="1033"><v:paragraph v:spLine="-1" v:horizAlign="1"/><v:tabList/>LSA</text>			</g>
			<g id="shape300-625" v:mID="300" v:groupContext="shape" transform="translate(71.1314,-44.4362) rotate(-34.7778)">
				<title>Sheet.300</title>
				<path d="M0 261.41 L16.19 261.41" class="st20"/>
			</g>
			<g id="shape301-631" v:mID="301" v:groupContext="shape" transform="translate(-74.3208,167.864) rotate(-90)">
				<title>Sheet.301</title>
				<path d="M0 261.41 L12.76 261.41" class="st20"/>
			</g>
			<g id="shape302-636" v:mID="302" v:groupContext="shape" transform="translate(174.331,-78.2362)">
				<title>Rectangle.1000</title>
				<desc>LSA</desc>
				<v:userDefs>
					<v:ud v:nameU="visVersion" v:val="VT0(15):26"/>
				</v:userDefs>
				<v:textBlock v:margins="rect(4,2,4,2)" v:tabSpace="42.5197"/>
				<v:textRect cx="10.6299" cy="255.171" width="21.26" height="12.4724"/>
				<rect x="0" y="248.935" width="21.2598" height="12.4724" rx="1.41732" ry="1.41732" class="st18"/>
				<text x="2.93" y="257.17" class="st19" v:langID="1033"><v:paragraph v:spLine="-1" v:horizAlign="1"/><v:tabList/>LSA</text>			</g>
			<g id="shape306-639" v:mID="306" v:groupContext="shape" transform="translate(149.195,5.68434E-014)">
				<title>Sheet.306</title>
				<desc>A new link is added. 10.1.1.1/24</desc>
				<v:userDefs/>
				<v:textBlock v:margins="rect(4,4,4,4)" v:tabSpace="42.5197"/>
				<v:textRect cx="37.8914" cy="240.778" width="75.8" height="41.2598"/>
				<rect x="0" y="220.148" width="75.7828" height="41.2598" class="st14"/>
				<text x="8.48" y="232.53" class="st22" v:langID="1026"><v:paragraph v:spLine="-1.1" v:horizAlign="1"/><v:tabList/>A new link<tspan
							class="st23"> </tspan><tspan x="15.01" dy="1.1em" class="st23">is added</tspan><tspan class="st23">.<v:newlineChar/></tspan><tspan
							x="7.91" dy="1.1em" class="st23">10</tspan><tspan class="st23">.</tspan><tspan class="st23">1</tspan><tspan
							class="st23">.</tspan><tspan class="st23">1</tspan><tspan class="st23">.</tspan><tspan class="st23">1</tspan><tspan
							class="st23">/</tspan><tspan class="st23">24</tspan></text>			</g>
			<g id="shape307-654" v:mID="307" v:groupContext="shape" transform="translate(148.819,-41.3858)">
				<title>Sheet.307</title>
				<desc>Gi0/1</desc>
				<v:userDefs/>
				<v:textBlock v:margins="rect(4,4,4,4)" v:tabSpace="42.5197"/>
				<v:textRect cx="19.0417" cy="257.581" width="38.1" height="7.65354"/>
				<path d="M0 260.35 A2.83472 1.05819 -180 0 0 2.83 261.41 L35.25 261.41 A2.83472 1.05819 -180 0 0 38.08 260.35 L38.08
							 254.81 A2.83472 1.05819 -180 0 0 35.25 253.75 L2.83 253.75 A2.83472 1.05819 -180 0 0 -0 254.81 L0 260.35
							 Z" class="st14"/>
				<text x="7.94" y="259.58" class="st19" v:langID="1026"><v:paragraph v:spLine="-1" v:spAfter="4" v:horizAlign="1"/><v:tabList/>Gi0/1</text>			</g>
			<g id="shape308-657" v:mID="308" v:groupContext="shape" transform="translate(448.559,211.801) rotate(90)">
				<title>Sheet.308</title>
				<path d="M0 261.41 L8.79 261.41" class="st24"/>
			</g>
			<g id="shape309-660" v:mID="309" v:groupContext="shape" transform="translate(164.409,-40.252)">
				<title>Sheet.309</title>
				<path d="M0 261.41 L45.35 261.41" class="st24"/>
			</g>
			<g id="shape310-663" v:mID="310" v:groupContext="shape" transform="translate(185.669,-41.3858)">
				<title>Sheet.310</title>
				<desc>Gi0/1</desc>
				<v:userDefs/>
				<v:textBlock v:margins="rect(4,4,4,4)" v:tabSpace="42.5197"/>
				<v:textRect cx="19.7504" cy="257.581" width="39.51" height="7.65354"/>
				<path d="M0 260.35 A2.94021 1.05819 -180 0 0 2.94 261.41 L36.56 261.41 A2.94021 1.05819 -180 0 0 39.5 260.35 L39.5
							 254.81 A2.94021 1.05819 -180 0 0 36.56 253.75 L2.94 253.75 A2.94021 1.05819 -180 0 0 -0 254.81 L0 260.35
							 Z" class="st14"/>
				<text x="4.38" y="259.58" class="st19" v:langID="1033"><v:paragraph v:spLine="-1" v:spAfter="4" v:horizAlign="1"/><v:tabList/>Cost 10</text>			</g>
			<g id="shape311-666" v:mID="311" v:groupContext="shape" transform="translate(247.323,-94.1102)">
				<title>Rectangle.311</title>
				<desc>LSA</desc>
				<v:userDefs>
					<v:ud v:nameU="visVersion" v:val="VT0(15):26"/>
				</v:userDefs>
				<v:textBlock v:margins="rect(4,2,4,2)" v:tabSpace="42.5197"/>
				<v:textRect cx="10.6299" cy="255.171" width="21.26" height="12.4724"/>
				<rect x="0" y="248.935" width="21.2598" height="12.4724" rx="1.41732" ry="1.41732" class="st18"/>
				<text x="2.93" y="257.17" class="st19" v:langID="1033"><v:paragraph v:spLine="-1" v:horizAlign="1"/><v:tabList/>LSA</text>			</g>
			<g id="shape313-669" v:mID="313" v:groupContext="shape" transform="translate(519.36,167.864) rotate(90)">
				<title>Sheet.313</title>
				<path d="M0 261.41 L9.92 261.41" class="st20"/>
			</g>
			<g id="shape315-674" v:mID="315" v:groupContext="shape" transform="translate(236.409,-8.50394)">
				<title>Sheet.315</title>
				<desc>OSPF Area 2</desc>
				<v:textBlock v:margins="rect(4,4,4,4)" v:tabSpace="42.5197"/>
				<v:textRect cx="34.0157" cy="242.982" width="68.04" height="36.8504"/>
				<rect x="0" y="224.557" width="68.0315" height="36.8504" class="st14"/>
				<text x="4" y="239.38" class="st17" v:langID="1033"><v:paragraph/><v:tabList/>OSPF <tspan x="4" dy="1.2em"
							class="st16">Area </tspan>2</text>			</g>
		</g>
	</g>
</svg>
